<svg xmlns="http://www.w3.org/2000/svg" xmlns:xlink="http://www.w3.org/1999/xlink" width="500" zoomAndPan="magnify" viewBox="0 0 375 374.999991" height="500" preserveAspectRatio="xMidYMid meet" version="1.0"><defs><filter x="0%" y="0%" width="100%" height="100%" id="38d0d8a7d0"><feColorMatrix values="0 0 0 0 1 0 0 0 0 1 0 0 0 0 1 0 0 0 1 0" color-interpolation-filters="sRGB"/></filter><g/><clipPath id="1a37f4f42b"><path d="M 197.980469 0.441406 L 296.640625 0.441406 L 296.640625 178 L 197.980469 178 Z M 197.980469 0.441406 " clip-rule="nonzero"/></clipPath><clipPath id="e82d3d38e6"><path d="M 148 0.441406 L 248 0.441406 L 248 178.039062 L 148 178.039062 Z M 148 0.441406 " clip-rule="nonzero"/></clipPath><mask id="0dc6b0ed1d"><g filter="url(#38d0d8a7d0)"><rect x="-118.5" width="540" fill="#000000" y="-119.499998" height="539.999987" fill-opacity="0.7"/></g></mask><clipPath id="a69def868b"><path d="M 0.699219 0.441406 L 99.410156 0.441406 L 99.410156 178 L 0.699219 178 Z M 0.699219 0.441406 " clip-rule="nonzero"/></clipPath><clipPath id="1f5ba02742"><rect x="0" width="100" y="0" height="179"/></clipPath><clipPath id="f076d3cadb"><path d="M 99 0.441406 L 198 0.441406 L 198 178.039062 L 99 178.039062 Z M 99 0.441406 " clip-rule="nonzero"/></clipPath><mask id="80c4477876"><g filter="url(#38d0d8a7d0)"><rect x="-118.5" width="540" fill="#000000" y="-119.499998" height="539.999987" fill-opacity="0.4"/></g></mask><clipPath id="9583ea8464"><path d="M 0.421875 0.441406 L 99 0.441406 L 99 178 L 0.421875 178 Z M 0.421875 0.441406 " clip-rule="nonzero"/></clipPath><clipPath id="8319848f22"><rect x="0" width="99" y="0" height="179"/></clipPath><clipPath id="2b91400de5"><path d="M 49 0.441406 L 149 0.441406 L 149 178.039062 L 49 178.039062 Z M 49 0.441406 " clip-rule="nonzero"/></clipPath><mask id="61d74161fa"><g filter="url(#38d0d8a7d0)"><rect x="-118.5" width="540" fill="#000000" y="-119.499998" height="539.999987" fill-opacity="0.1"/></g></mask><clipPath id="d0bb2bffb4"><path d="M 1.144531 0.441406 L 99.800781 0.441406 L 99.800781 178 L 1.144531 178 Z M 1.144531 0.441406 " clip-rule="nonzero"/></clipPath><clipPath id="b6a3eab08d"><rect x="0" width="100" y="0" height="179"/></clipPath><clipPath id="107c6be1f6"><path d="M 0.71875 0.441406 L 100 0.441406 L 100 178.039062 L 0.71875 178.039062 Z M 0.71875 0.441406 " clip-rule="nonzero"/></clipPath><mask id="90bfe4d255"><g filter="url(#38d0d8a7d0)"><rect x="-118.5" width="540" fill="#000000" y="-119.499998" height="539.999987" fill-opacity="0.07"/></g></mask><clipPath id="82caf03dbe"><path d="M 0.867188 0.441406 L 99.578125 0.441406 L 99.578125 178 L 0.867188 178 Z M 0.867188 0.441406 " clip-rule="nonzero"/></clipPath><clipPath id="db72281ffb"><rect x="0" width="100" y="0" height="179"/></clipPath><clipPath id="97ed19adb1"><rect x="0" width="297" y="0" height="179"/></clipPath><clipPath id="aeefdb5823"><path d="M 83 318 L 103.980469 318 L 103.980469 337.566406 L 83 337.566406 Z M 83 318 " clip-rule="nonzero"/></clipPath><clipPath id="1c201627ec"><path d="M 82.980469 315.066406 L 96 315.066406 L 96 325 L 82.980469 325 Z M 82.980469 315.066406 " clip-rule="nonzero"/></clipPath><clipPath id="6d52b6c948"><rect x="0" width="281" y="0" height="29"/></clipPath></defs><g transform="matrix(1, 0, 0, 1, 36, 37)"><g clip-path="url(#97ed19adb1)"><g clip-path="url(#1a37f4f42b)"><path fill="#ff751f" d="M 197.980469 177.980469 L 237.398438 177.980469 L 296.527344 89.285156 L 237.398438 0.589844 L 197.980469 0.589844 L 257.109375 89.285156 Z M 197.980469 177.980469 " fill-opacity="1" fill-rule="nonzero"/></g><g clip-path="url(#e82d3d38e6)"><g mask="url(#0dc6b0ed1d)"><g transform="matrix(1, 0, 0, 1, 148, 0)"><g clip-path="url(#1f5ba02742)"><g clip-path="url(#a69def868b)"><path fill="#ff751f" d="M 0.699219 177.980469 L 40.121094 177.980469 L 99.25 89.285156 L 40.121094 0.589844 L 0.699219 0.589844 L 59.832031 89.285156 Z M 0.699219 177.980469 " fill-opacity="1" fill-rule="nonzero"/></g></g></g></g></g><g clip-path="url(#f076d3cadb)"><g mask="url(#80c4477876)"><g transform="matrix(1, 0, 0, 1, 99, 0)"><g clip-path="url(#8319848f22)"><g clip-path="url(#9583ea8464)"><path fill="#ff751f" d="M 0.421875 177.980469 L 39.84375 177.980469 L 98.972656 89.285156 L 39.84375 0.589844 L 0.421875 0.589844 L 59.554688 89.285156 Z M 0.421875 177.980469 " fill-opacity="1" fill-rule="nonzero"/></g></g></g></g></g><g clip-path="url(#2b91400de5)"><g mask="url(#61d74161fa)"><g transform="matrix(1, 0, 0, 1, 49, 0)"><g clip-path="url(#b6a3eab08d)"><g clip-path="url(#d0bb2bffb4)"><path fill="#ff751f" d="M 1.144531 177.980469 L 40.566406 177.980469 L 99.695312 89.285156 L 40.566406 0.589844 L 1.144531 0.589844 L 60.273438 89.285156 Z M 1.144531 177.980469 " fill-opacity="1" fill-rule="nonzero"/></g></g></g></g></g><g clip-path="url(#107c6be1f6)"><g mask="url(#90bfe4d255)"><g transform="matrix(1, 0, 0, 1, -0.000000000000007105, 0)"><g clip-path="url(#db72281ffb)"><g clip-path="url(#82caf03dbe)"><path fill="#ff751f" d="M 0.867188 177.980469 L 40.289062 177.980469 L 99.417969 89.285156 L 40.289062 0.589844 L 0.867188 0.589844 L 59.996094 89.285156 Z M 0.867188 177.980469 " fill-opacity="1" fill-rule="nonzero"/></g></g></g></g></g></g></g><g clip-path="url(#aeefdb5823)"><path fill="#000000" d="M 83.542969 330.804688 C 83.542969 329.269531 83.542969 327.761719 83.542969 326.222656 C 83.859375 326.222656 84.167969 326.226562 84.476562 326.222656 C 85.53125 326.210938 86.582031 326.195312 87.636719 326.179688 C 88.378906 326.171875 89.117188 326.164062 89.859375 326.144531 C 89.96875 326.140625 90.101562 326.105469 90.1875 326.035156 C 93.425781 323.472656 96.65625 320.902344 99.886719 318.332031 C 100.144531 318.128906 100.039062 318.136719 100.324219 318.308594 C 101.246094 318.867188 102.164062 319.429688 103.109375 320.003906 C 101.496094 320.859375 99.902344 321.703125 98.277344 322.558594 C 98.53125 322.691406 98.757812 322.8125 98.984375 322.929688 C 100.453125 323.691406 101.917969 324.453125 103.382812 325.210938 C 103.476562 325.257812 103.507812 325.316406 103.511719 325.417969 C 103.574219 327.011719 103.636719 328.601562 103.699219 330.195312 C 103.746094 331.460938 103.792969 332.730469 103.84375 333.996094 C 103.886719 335.199219 103.933594 336.402344 103.980469 337.605469 C 103.964844 337.617188 103.949219 337.632812 103.9375 337.644531 C 103.917969 337.609375 103.910156 337.566406 103.882812 337.535156 C 100.917969 333.769531 97.953125 330 94.988281 326.230469 C 94.894531 326.113281 94.828125 326.089844 94.679688 326.148438 C 91.023438 327.683594 87.363281 329.214844 83.703125 330.742188 C 83.65625 330.761719 83.605469 330.78125 83.542969 330.804688 Z M 83.542969 330.804688 " fill-opacity="1" fill-rule="nonzero"/></g><g clip-path="url(#1c201627ec)"><path fill="#000000" d="M 82.984375 315.066406 C 87.164062 315.066406 91.3125 315.066406 95.46875 315.066406 C 95.472656 315.117188 95.476562 315.164062 95.476562 315.210938 C 95.476562 317.019531 95.476562 318.824219 95.472656 320.632812 C 95.472656 320.695312 95.445312 320.785156 95.398438 320.820312 C 94.03125 321.914062 92.660156 323.003906 91.289062 324.09375 C 91.277344 324.101562 91.261719 324.109375 91.230469 324.132812 C 88.492188 321.117188 85.75 318.105469 82.984375 315.066406 Z M 82.984375 315.066406 " fill-opacity="1" fill-rule="nonzero"/></g><g fill="#231f20" fill-opacity="1"><g transform="translate(29.204845, 296.54856)"><g><path d="M 2.78125 0 L 2.78125 -50.15625 L 18.84375 -50.15625 C 22.375 -50.15625 25.46875 -49.765625 28.125 -48.984375 C 30.78125 -48.203125 32.847656 -46.875 34.328125 -45 C 35.816406 -43.125 36.5625 -40.5 36.5625 -37.125 C 36.5625 -34.8125 35.816406 -32.816406 34.328125 -31.140625 C 32.847656 -29.472656 31.046875 -28.210938 28.921875 -27.359375 L 28.921875 -26.8125 C 32.453125 -26.144531 35.203125 -24.78125 37.171875 -22.71875 C 39.140625 -20.65625 40.125 -17.632812 40.125 -13.65625 C 40.125 -8.71875 38.296875 -5.207031 34.640625 -3.125 C 30.984375 -1.039062 25.71875 0 18.84375 0 Z M 7.796875 -4.734375 L 18.84375 -4.734375 C 22.257812 -4.734375 25.179688 -4.957031 27.609375 -5.40625 C 30.046875 -5.851562 31.90625 -6.71875 33.1875 -8 C 34.46875 -9.28125 35.109375 -11.164062 35.109375 -13.65625 C 35.109375 -16.738281 34.46875 -19.066406 33.1875 -20.640625 C 31.90625 -22.222656 30.046875 -23.285156 27.609375 -23.828125 C 25.179688 -24.367188 22.257812 -24.640625 18.84375 -24.640625 L 7.796875 -24.640625 Z M 7.796875 -29.375 L 18.84375 -29.375 C 22.96875 -29.375 26.113281 -29.957031 28.28125 -31.125 C 30.457031 -32.300781 31.546875 -34.300781 31.546875 -37.125 C 31.546875 -39.53125 31.0625 -41.316406 30.09375 -42.484375 C 29.125 -43.660156 27.691406 -44.441406 25.796875 -44.828125 C 23.910156 -45.222656 21.59375 -45.421875 18.84375 -45.421875 L 7.796875 -45.421875 Z M 7.796875 -29.375 "/></g></g></g><g fill="#231f20" fill-opacity="1"><g transform="translate(72.120278, 296.54856)"><g><path d="M 2.78125 0 L 19.953125 -50.15625 L 31.328125 -50.15625 L 48.484375 0 L 42.796875 0 L 36.78125 -18.5 L 14.484375 -18.5 L 8.46875 0 Z M 16.046875 -23.234375 L 35.21875 -23.234375 L 27.8125 -45.984375 L 23.46875 -45.984375 Z M 16.046875 -23.234375 "/></g></g></g><g fill="#231f20" fill-opacity="1"><g transform="translate(123.39586, 296.54856)"><g><path d="M 7.796875 -50.109375 L 2.78125 -50.109375 L 2.78125 0 L 35.5 0 L 35.5 -4.734375 L 7.796875 -4.734375 Z M 7.796875 -50.109375 "/></g></g></g><g fill="#231f20" fill-opacity="1"><g transform="translate(161.685351, 296.54856)"><g><path d="M 2.78125 0 L 19.953125 -50.15625 L 31.328125 -50.15625 L 48.484375 0 L 42.796875 0 L 36.78125 -18.5 L 14.484375 -18.5 L 8.46875 0 Z M 16.046875 -23.234375 L 35.21875 -23.234375 L 27.8125 -45.984375 L 23.46875 -45.984375 Z M 16.046875 -23.234375 "/></g></g></g><g fill="#231f20" fill-opacity="1"><g transform="translate(212.960933, 296.54856)"><g><path d="M 22.296875 0.5625 C 16.015625 0.5625 11.191406 -0.921875 7.828125 -3.890625 C 4.460938 -6.867188 2.78125 -11.609375 2.78125 -18.109375 L 8.578125 -18.109375 C 8.617188 -14.429688 9.203125 -11.609375 10.328125 -9.640625 C 11.460938 -7.671875 13.0625 -6.3125 15.125 -5.5625 C 17.1875 -4.820312 19.578125 -4.453125 22.296875 -4.453125 C 25.523438 -4.453125 28.078125 -4.726562 29.953125 -5.28125 C 31.828125 -5.84375 33.164062 -6.707031 33.96875 -7.875 C 34.769531 -9.050781 35.171875 -10.550781 35.171875 -12.375 C 35.171875 -14.894531 34.320312 -16.890625 32.625 -18.359375 C 30.9375 -19.828125 28.144531 -21.117188 24.25 -22.234375 L 15.21875 -24.796875 C 13.351562 -25.359375 11.53125 -26.117188 9.75 -27.078125 C 7.96875 -28.046875 6.507812 -29.382812 5.375 -31.09375 C 4.238281 -32.800781 3.671875 -34.992188 3.671875 -37.671875 C 3.671875 -39.941406 4.332031 -42.070312 5.65625 -44.0625 C 6.976562 -46.050781 8.9375 -47.664062 11.53125 -48.90625 C 14.132812 -50.15625 17.347656 -50.757812 21.171875 -50.71875 C 24.441406 -50.71875 27.238281 -50.234375 29.5625 -49.265625 C 31.882812 -48.296875 33.769531 -46.984375 35.21875 -45.328125 C 36.664062 -43.679688 37.722656 -41.804688 38.390625 -39.703125 C 39.066406 -37.609375 39.40625 -35.390625 39.40625 -33.046875 L 33.78125 -33 C 33.78125 -36.226562 33.257812 -38.769531 32.21875 -40.625 C 31.175781 -42.488281 29.707031 -43.800781 27.8125 -44.5625 C 25.914062 -45.320312 23.703125 -45.703125 21.171875 -45.703125 C 16.867188 -45.703125 13.722656 -45.050781 11.734375 -43.75 C 9.742188 -42.445312 8.726562 -40.421875 8.6875 -37.671875 C 8.65625 -35.628906 9.503906 -33.835938 11.234375 -32.296875 C 12.960938 -30.753906 15.253906 -29.578125 18.109375 -28.765625 L 26.859375 -26.3125 C 30.054688 -25.414062 32.648438 -24.398438 34.640625 -23.265625 C 36.628906 -22.128906 38.097656 -20.695312 39.046875 -18.96875 C 39.992188 -17.25 40.46875 -15.050781 40.46875 -12.375 C 40.46875 -10.851562 40.164062 -9.328125 39.5625 -7.796875 C 38.96875 -6.273438 37.992188 -4.882812 36.640625 -3.625 C 35.285156 -2.363281 33.4375 -1.347656 31.09375 -0.578125 C 28.757812 0.179688 25.828125 0.5625 22.296875 0.5625 Z M 22.296875 0.5625 "/></g></g></g><g fill="#231f20" fill-opacity="1"><g transform="translate(256.210773, 296.54856)"><g><path d="M 47.59375 -21.015625 C 47.40625 -16.515625 46.398438 -12.617188 44.578125 -9.328125 C 42.765625 -6.046875 40.234375 -3.507812 36.984375 -1.71875 C 33.734375 0.0625 29.820312 0.953125 25.25 0.953125 C 21.570312 0.953125 18.335938 0.265625 15.546875 -1.109375 C 12.765625 -2.484375 10.425781 -4.367188 8.53125 -6.765625 C 6.632812 -9.160156 5.203125 -11.921875 4.234375 -15.046875 C 3.265625 -18.171875 2.78125 -21.5 2.78125 -25.03125 C 2.78125 -28.550781 3.265625 -31.875 4.234375 -35 C 5.203125 -38.125 6.632812 -40.875 8.53125 -43.25 C 10.425781 -45.625 12.765625 -47.5 15.546875 -48.875 C 18.335938 -50.25 21.570312 -50.9375 25.25 -50.9375 C 29.820312 -50.9375 33.695312 -50.035156 36.875 -48.234375 C 40.050781 -46.429688 42.539062 -43.882812 44.34375 -40.59375 C 46.144531 -37.3125 47.226562 -33.441406 47.59375 -28.984375 L 42.078125 -28.984375 C 41.523438 -34.847656 39.910156 -39.132812 37.234375 -41.84375 C 34.554688 -44.5625 30.5625 -45.921875 25.25 -45.921875 C 21.414062 -45.921875 18.242188 -45.066406 15.734375 -43.359375 C 13.234375 -41.648438 11.378906 -39.234375 10.171875 -36.109375 C 8.960938 -32.992188 8.359375 -29.300781 8.359375 -25.03125 C 8.359375 -20.75 8.960938 -17.039062 10.171875 -13.90625 C 11.378906 -10.769531 13.234375 -8.34375 15.734375 -6.625 C 18.242188 -4.914062 21.414062 -4.0625 25.25 -4.0625 C 30.5625 -4.0625 34.628906 -5.398438 37.453125 -8.078125 C 40.273438 -10.753906 41.816406 -15.066406 42.078125 -21.015625 Z M 47.59375 -21.015625 "/></g></g></g><g fill="#231f20" fill-opacity="1"><g transform="translate(306.594597, 296.54856)"><g><path d="M 7.796875 0 L 7.796875 -50.15625 L 2.78125 -50.15625 L 2.78125 0 Z M 7.796875 0 "/></g></g></g><g transform="matrix(1, 0, 0, 1, 37, 312)"><g clip-path="url(#6d52b6c948)"><g fill="#3e4146" fill-opacity="1"><g transform="translate(0.500002, 22.072038)"><g><path d="M 0.953125 0 L 0.953125 -17.0625 L 6.40625 -17.0625 C 7.601562 -17.0625 8.65625 -16.925781 9.5625 -16.65625 C 10.46875 -16.394531 11.171875 -15.941406 11.671875 -15.296875 C 12.179688 -14.660156 12.4375 -13.769531 12.4375 -12.625 C 12.4375 -11.84375 12.179688 -11.164062 11.671875 -10.59375 C 11.171875 -10.019531 10.5625 -9.59375 9.84375 -9.3125 L 9.84375 -9.109375 C 11.039062 -8.890625 11.972656 -8.425781 12.640625 -7.71875 C 13.304688 -7.019531 13.640625 -5.992188 13.640625 -4.640625 C 13.640625 -2.960938 13.015625 -1.769531 11.765625 -1.0625 C 10.523438 -0.351562 8.738281 0 6.40625 0 Z M 2.65625 -1.609375 L 6.40625 -1.609375 C 7.570312 -1.609375 8.566406 -1.679688 9.390625 -1.828125 C 10.210938 -1.984375 10.84375 -2.28125 11.28125 -2.71875 C 11.71875 -3.15625 11.9375 -3.796875 11.9375 -4.640625 C 11.9375 -5.691406 11.71875 -6.484375 11.28125 -7.015625 C 10.84375 -7.554688 10.210938 -7.914062 9.390625 -8.09375 C 8.566406 -8.28125 7.570312 -8.375 6.40625 -8.375 L 2.65625 -8.375 Z M 2.65625 -9.984375 L 6.40625 -9.984375 C 7.8125 -9.984375 8.882812 -10.179688 9.625 -10.578125 C 10.363281 -10.984375 10.734375 -11.664062 10.734375 -12.625 C 10.734375 -13.445312 10.566406 -14.054688 10.234375 -14.453125 C 9.898438 -14.847656 9.410156 -15.113281 8.765625 -15.25 C 8.128906 -15.382812 7.34375 -15.453125 6.40625 -15.453125 L 2.65625 -15.453125 Z M 2.65625 -9.984375 "/></g></g></g><g fill="#3e4146" fill-opacity="1"><g transform="translate(15.086165, 22.072038)"><g><path d="M 6.015625 -5.25 L 0.953125 -17.0625 L 2.75 -17.0625 L 7.125 -6.640625 L 8.421875 -6.640625 L 12.796875 -17.0625 L 14.59375 -17.0625 L 9.53125 -5.25 L 8.625 -5.25 L 8.625 0.015625 L 6.921875 0.015625 L 6.921875 -5.25 Z M 6.015625 -5.25 "/></g></g></g><g fill="#3e4146" fill-opacity="1"><g transform="translate(30.626065, 22.072038)"><g/></g></g><g fill="#3e4146" fill-opacity="1"><g transform="translate(38.203293, 22.072038)"><g/></g></g><g fill="#3e4146" fill-opacity="1"><g transform="translate(45.780521, 22.072038)"><g/></g></g><g fill="#3e4146" fill-opacity="1"><g transform="translate(53.357749, 22.072038)"><g/></g></g><g fill="#3e4146" fill-opacity="1"><g transform="translate(60.934977, 22.072038)"><g/></g></g><g fill="#3e4146" fill-opacity="1"><g transform="translate(68.512204, 22.072038)"><g/></g></g><g fill="#3e4146" fill-opacity="1"><g transform="translate(76.089509, 22.072038)"><g><path d="M 11.859375 -17.0625 L 0.953125 -17.0625 L 0.953125 0 L 11.859375 0 L 11.859375 -1.609375 L 2.65625 -1.609375 L 2.65625 -7.71875 L 9.1875 -7.71875 L 9.1875 -9.328125 L 2.65625 -9.328125 L 2.65625 -15.453125 L 11.859375 -15.453125 Z M 11.859375 -17.0625 "/></g></g></g><g fill="#3e4146" fill-opacity="1"><g transform="translate(88.895022, 22.072038)"><g><path d="M 7.578125 0.1875 C 5.441406 0.1875 3.800781 -0.316406 2.65625 -1.328125 C 1.519531 -2.335938 0.953125 -3.945312 0.953125 -6.15625 L 2.921875 -6.15625 C 2.929688 -4.90625 3.128906 -3.945312 3.515625 -3.28125 C 3.898438 -2.613281 4.441406 -2.148438 5.140625 -1.890625 C 5.847656 -1.640625 6.660156 -1.515625 7.578125 -1.515625 C 8.679688 -1.515625 9.550781 -1.609375 10.1875 -1.796875 C 10.820312 -1.984375 11.273438 -2.273438 11.546875 -2.671875 C 11.816406 -3.078125 11.953125 -3.585938 11.953125 -4.203125 C 11.953125 -5.066406 11.664062 -5.75 11.09375 -6.25 C 10.519531 -6.75 9.570312 -7.1875 8.25 -7.5625 L 5.171875 -8.4375 C 4.535156 -8.625 3.914062 -8.878906 3.3125 -9.203125 C 2.707031 -9.535156 2.210938 -9.992188 1.828125 -10.578125 C 1.441406 -11.160156 1.25 -11.90625 1.25 -12.8125 C 1.25 -13.582031 1.472656 -14.304688 1.921875 -14.984375 C 2.367188 -15.660156 3.035156 -16.207031 3.921875 -16.625 C 4.804688 -17.050781 5.898438 -17.257812 7.203125 -17.25 C 8.316406 -17.25 9.265625 -17.082031 10.046875 -16.75 C 10.835938 -16.425781 11.476562 -15.984375 11.96875 -15.421875 C 12.46875 -14.859375 12.832031 -14.21875 13.0625 -13.5 C 13.289062 -12.789062 13.40625 -12.035156 13.40625 -11.234375 L 11.484375 -11.21875 C 11.484375 -12.320312 11.304688 -13.1875 10.953125 -13.8125 C 10.597656 -14.445312 10.097656 -14.894531 9.453125 -15.15625 C 8.804688 -15.414062 8.054688 -15.546875 7.203125 -15.546875 C 5.734375 -15.546875 4.660156 -15.320312 3.984375 -14.875 C 3.304688 -14.4375 2.960938 -13.75 2.953125 -12.8125 C 2.941406 -12.113281 3.226562 -11.503906 3.8125 -10.984375 C 4.40625 -10.460938 5.1875 -10.0625 6.15625 -9.78125 L 9.140625 -8.953125 C 10.222656 -8.640625 11.101562 -8.289062 11.78125 -7.90625 C 12.457031 -7.519531 12.957031 -7.035156 13.28125 -6.453125 C 13.601562 -5.867188 13.765625 -5.117188 13.765625 -4.203125 C 13.765625 -3.691406 13.660156 -3.175781 13.453125 -2.65625 C 13.253906 -2.132812 12.921875 -1.660156 12.453125 -1.234375 C 11.992188 -0.804688 11.363281 -0.460938 10.5625 -0.203125 C 9.769531 0.0546875 8.773438 0.1875 7.578125 0.1875 Z M 7.578125 0.1875 "/></g></g></g><g fill="#3e4146" fill-opacity="1"><g transform="translate(103.594833, 22.072038)"><g><path d="M 0.953125 0 L 0.953125 -17.0625 L 4.703125 -17.0625 L 11.09375 -1.421875 L 11.84375 -1.421875 L 11.84375 -17.0625 L 13.546875 -17.0625 L 13.546875 0 L 9.734375 0 L 3.40625 -15.640625 L 2.65625 -15.640625 L 2.65625 0 Z M 0.953125 0 "/></g></g></g><g fill="#3e4146" fill-opacity="1"><g transform="translate(118.086281, 22.072038)"><g><path d="M 0.953125 0 L 6.78125 -17.0625 L 10.65625 -17.0625 L 16.484375 0 L 14.5625 0 L 12.515625 -6.296875 L 4.921875 -6.296875 L 2.875 0 Z M 5.453125 -7.90625 L 11.984375 -7.90625 L 9.453125 -15.640625 L 7.984375 -15.640625 Z M 5.453125 -7.90625 "/></g></g></g><g fill="#3e4146" fill-opacity="1"><g transform="translate(135.513895, 22.072038)"><g><path d="M 0.953125 -1.703125 C 1.765625 -1.703125 2.484375 -1.769531 3.109375 -1.90625 C 3.742188 -2.050781 4.269531 -2.304688 4.6875 -2.671875 C 5.113281 -3.046875 5.429688 -3.570312 5.640625 -4.25 C 5.859375 -4.9375 5.96875 -5.828125 5.96875 -6.921875 L 5.96875 -17.03125 L 7.578125 -17.03125 L 7.578125 -6.921875 C 7.578125 -5.546875 7.441406 -4.40625 7.171875 -3.5 C 6.898438 -2.601562 6.488281 -1.898438 5.9375 -1.390625 C 5.394531 -0.878906 4.707031 -0.519531 3.875 -0.3125 C 3.050781 -0.101562 2.078125 0 0.953125 0 Z M 0.953125 -1.703125 "/></g></g></g><g fill="#3e4146" fill-opacity="1"><g transform="translate(144.038278, 22.072038)"><g/></g></g><g fill="#3e4146" fill-opacity="1"><g transform="translate(151.615506, 22.072038)"><g><path d="M 7.578125 0.1875 C 5.441406 0.1875 3.800781 -0.316406 2.65625 -1.328125 C 1.519531 -2.335938 0.953125 -3.945312 0.953125 -6.15625 L 2.921875 -6.15625 C 2.929688 -4.90625 3.128906 -3.945312 3.515625 -3.28125 C 3.898438 -2.613281 4.441406 -2.148438 5.140625 -1.890625 C 5.847656 -1.640625 6.660156 -1.515625 7.578125 -1.515625 C 8.679688 -1.515625 9.550781 -1.609375 10.1875 -1.796875 C 10.820312 -1.984375 11.273438 -2.273438 11.546875 -2.671875 C 11.816406 -3.078125 11.953125 -3.585938 11.953125 -4.203125 C 11.953125 -5.066406 11.664062 -5.75 11.09375 -6.25 C 10.519531 -6.75 9.570312 -7.1875 8.25 -7.5625 L 5.171875 -8.4375 C 4.535156 -8.625 3.914062 -8.878906 3.3125 -9.203125 C 2.707031 -9.535156 2.210938 -9.992188 1.828125 -10.578125 C 1.441406 -11.160156 1.25 -11.90625 1.25 -12.8125 C 1.25 -13.582031 1.472656 -14.304688 1.921875 -14.984375 C 2.367188 -15.660156 3.035156 -16.207031 3.921875 -16.625 C 4.804688 -17.050781 5.898438 -17.257812 7.203125 -17.25 C 8.316406 -17.25 9.265625 -17.082031 10.046875 -16.75 C 10.835938 -16.425781 11.476562 -15.984375 11.96875 -15.421875 C 12.46875 -14.859375 12.832031 -14.21875 13.0625 -13.5 C 13.289062 -12.789062 13.40625 -12.035156 13.40625 -11.234375 L 11.484375 -11.21875 C 11.484375 -12.320312 11.304688 -13.1875 10.953125 -13.8125 C 10.597656 -14.445312 10.097656 -14.894531 9.453125 -15.15625 C 8.804688 -15.414062 8.054688 -15.546875 7.203125 -15.546875 C 5.734375 -15.546875 4.660156 -15.320312 3.984375 -14.875 C 3.304688 -14.4375 2.960938 -13.75 2.953125 -12.8125 C 2.941406 -12.113281 3.226562 -11.503906 3.8125 -10.984375 C 4.40625 -10.460938 5.1875 -10.0625 6.15625 -9.78125 L 9.140625 -8.953125 C 10.222656 -8.640625 11.101562 -8.289062 11.78125 -7.90625 C 12.457031 -7.519531 12.957031 -7.035156 13.28125 -6.453125 C 13.601562 -5.867188 13.765625 -5.117188 13.765625 -4.203125 C 13.765625 -3.691406 13.660156 -3.175781 13.453125 -2.65625 C 13.253906 -2.132812 12.921875 -1.660156 12.453125 -1.234375 C 11.992188 -0.804688 11.363281 -0.460938 10.5625 -0.203125 C 9.769531 0.0546875 8.773438 0.1875 7.578125 0.1875 Z M 7.578125 0.1875 "/></g></g></g><g fill="#3e4146" fill-opacity="1"><g transform="translate(166.315317, 22.072038)"><g><path d="M 8.578125 0.328125 C 7.296875 0.328125 6.171875 0.09375 5.203125 -0.375 C 4.242188 -0.84375 3.445312 -1.484375 2.8125 -2.296875 C 2.1875 -3.117188 1.71875 -4.054688 1.40625 -5.109375 C 1.101562 -6.171875 0.953125 -7.304688 0.953125 -8.515625 C 0.953125 -9.710938 1.101562 -10.84375 1.40625 -11.90625 C 1.71875 -12.96875 2.1875 -13.898438 2.8125 -14.703125 C 3.445312 -15.515625 4.242188 -16.15625 5.203125 -16.625 C 6.171875 -17.09375 7.296875 -17.328125 8.578125 -17.328125 C 9.867188 -17.328125 10.992188 -17.09375 11.953125 -16.625 C 12.921875 -16.15625 13.71875 -15.515625 14.34375 -14.703125 C 14.976562 -13.898438 15.445312 -12.96875 15.75 -11.90625 C 16.0625 -10.84375 16.21875 -9.710938 16.21875 -8.515625 C 16.21875 -7.304688 16.0625 -6.171875 15.75 -5.109375 C 15.445312 -4.054688 14.976562 -3.117188 14.34375 -2.296875 C 13.71875 -1.484375 12.921875 -0.84375 11.953125 -0.375 C 10.992188 0.09375 9.867188 0.328125 8.578125 0.328125 Z M 2.78125 -8.515625 C 2.78125 -7.054688 2.976562 -5.789062 3.375 -4.71875 C 3.78125 -3.65625 4.40625 -2.832031 5.25 -2.25 C 6.101562 -1.675781 7.210938 -1.390625 8.578125 -1.390625 C 9.960938 -1.390625 11.078125 -1.675781 11.921875 -2.25 C 12.765625 -2.832031 13.382812 -3.65625 13.78125 -4.71875 C 14.1875 -5.789062 14.390625 -7.054688 14.390625 -8.515625 C 14.390625 -9.960938 14.1875 -11.21875 13.78125 -12.28125 C 13.382812 -13.34375 12.765625 -14.164062 11.921875 -14.75 C 11.078125 -15.332031 9.960938 -15.625 8.578125 -15.625 C 7.210938 -15.625 6.101562 -15.332031 5.25 -14.75 C 4.40625 -14.164062 3.78125 -13.34375 3.375 -12.28125 C 2.976562 -11.21875 2.78125 -9.960938 2.78125 -8.515625 Z M 2.78125 -8.515625 "/></g></g></g><g fill="#3e4146" fill-opacity="1"><g transform="translate(183.477731, 22.072038)"><g><path d="M 0.953125 0 L 0.953125 -17.03125 L 11.890625 -17.03125 L 11.890625 -15.421875 L 2.65625 -15.421875 L 2.65625 -9.3125 L 9.21875 -9.3125 L 9.21875 -7.6875 L 2.65625 -7.6875 L 2.65625 0 Z M 0.953125 0 "/></g></g></g><g fill="#3e4146" fill-opacity="1"><g transform="translate(196.302178, 22.072038)"><g><path d="M 6.640625 0 L 6.640625 -15.453125 L 0.953125 -15.453125 L 0.953125 -17.0625 L 14.03125 -17.0625 L 14.03125 -15.453125 L 8.34375 -15.453125 L 8.34375 0 Z M 6.640625 0 "/></g></g></g><g fill="#3e4146" fill-opacity="1"><g transform="translate(211.267202, 22.072038)"><g><path d="M 4.65625 0 L 0.953125 -17.0625 L 2.84375 -17.0625 L 6.0625 -1.390625 L 7.046875 -1.390625 L 10.265625 -17.0625 L 14.4375 -17.0625 L 17.671875 -1.390625 L 18.65625 -1.390625 L 21.875 -17.0625 L 23.765625 -17.0625 L 20.046875 0 L 16.265625 0 L 12.84375 -15.640625 L 11.890625 -15.640625 L 8.46875 0 Z M 4.65625 0 "/></g></g></g><g fill="#3e4146" fill-opacity="1"><g transform="translate(235.968953, 22.072038)"><g><path d="M 0.953125 0 L 6.78125 -17.0625 L 10.65625 -17.0625 L 16.484375 0 L 14.5625 0 L 12.515625 -6.296875 L 4.921875 -6.296875 L 2.875 0 Z M 5.453125 -7.90625 L 11.984375 -7.90625 L 9.453125 -15.640625 L 7.984375 -15.640625 Z M 5.453125 -7.90625 "/></g></g></g><g fill="#3e4146" fill-opacity="1"><g transform="translate(253.396568, 22.072038)"><g><path d="M 11.109375 0.015625 L 11.109375 -7.65625 L 2.65625 -7.65625 L 2.65625 0 L 0.953125 0 L 0.953125 -17.0625 L 6.59375 -17.0625 C 8.144531 -17.0625 9.410156 -16.910156 10.390625 -16.609375 C 11.367188 -16.316406 12.085938 -15.832031 12.546875 -15.15625 C 13.003906 -14.476562 13.234375 -13.566406 13.234375 -12.421875 C 13.234375 -10.785156 12.765625 -9.609375 11.828125 -8.890625 L 11.828125 -8.515625 L 12.84375 -8.515625 L 12.84375 0.015625 Z M 2.65625 -9.328125 L 6.59375 -9.328125 C 7.320312 -9.328125 7.988281 -9.351562 8.59375 -9.40625 C 9.195312 -9.46875 9.710938 -9.597656 10.140625 -9.796875 C 10.578125 -10.003906 10.914062 -10.3125 11.15625 -10.71875 C 11.40625 -11.125 11.53125 -11.691406 11.53125 -12.421875 C 11.53125 -13.117188 11.40625 -13.671875 11.15625 -14.078125 C 10.914062 -14.492188 10.578125 -14.796875 10.140625 -14.984375 C 9.710938 -15.179688 9.195312 -15.304688 8.59375 -15.359375 C 7.988281 -15.421875 7.320312 -15.453125 6.59375 -15.453125 L 2.65625 -15.453125 Z M 2.65625 -9.328125 "/></g></g></g><g fill="#3e4146" fill-opacity="1"><g transform="translate(267.565977, 22.072038)"><g><path d="M 11.859375 -17.0625 L 0.953125 -17.0625 L 0.953125 0 L 11.859375 0 L 11.859375 -1.609375 L 2.65625 -1.609375 L 2.65625 -7.71875 L 9.1875 -7.71875 L 9.1875 -9.328125 L 2.65625 -9.328125 L 2.65625 -15.453125 L 11.859375 -15.453125 Z M 11.859375 -17.0625 "/></g></g></g></g></g></svg>