<svg xmlns="http://www.w3.org/2000/svg" version="1.1" xmlns:xlink="http://www.w3.org/1999/xlink" width="1000" height="1000"><style>
    #light-icon {
      display: inline;
    }
    #dark-icon {
      display: none;
    }

    @media (prefers-color-scheme: dark) {
      #light-icon {
        display: none;
      }
      #dark-icon {
        display: inline;
      }
    }
  </style><g id="light-icon"><svg xmlns="http://www.w3.org/2000/svg" version="1.1" xmlns:xlink="http://www.w3.org/1999/xlink" width="1000" height="1000"><g clip-path="url(#SvgjsClipPath1659)"><rect width="1000" height="1000" fill="#ffffff"></rect><g transform="matrix(0.11013925803241283,0,0,0.11013925803241283,150,195.28707663865634)"><svg xmlns="http://www.w3.org/2000/svg" version="1.1" xmlns:xlink="http://www.w3.org/1999/xlink" width="6355.5903" height="5533.23"><svg xmlns:dc="http://purl.org/dc/elements/1.1/" xmlns:cc="http://creativecommons.org/ns#" xmlns:rdf="http://www.w3.org/1999/02/22-rdf-syntax-ns#" xmlns:svg="http://www.w3.org/2000/svg" xmlns="http://www.w3.org/2000/svg" viewBox="0 0 6355.5903 5533.23" height="5533.23" width="6355.5903" xml:space="preserve" id="svg2" version="1.1"><metadata id="metadata8"><rdf:rdf><cc:work rdf:about=""><dc:format>image/svg+xml</dc:format><dc:type rdf:resource="http://purl.org/dc/dcmitype/StillImage"></dc:type></cc:work></rdf:rdf></metadata><defs id="defs6"><clipPath id="clipPath14" clipPathUnits="userSpaceOnUse"><path id="path12" d="m -29937.275,-16516.928 h 4766.693 v 4149.922 h -4766.693 z"></path></clipPath><clipPath id="clipPath34" clipPathUnits="userSpaceOnUse"><path id="path32" d="m -29937.275,-16516.928 h 4766.693 v 4149.922 h -4766.693 z"></path></clipPath><clipPath id="clipPath102" clipPathUnits="userSpaceOnUse"><path id="path100" d="m -29937.275,-16516.928 h 4766.693 v 4149.922 h -4766.693 z"></path></clipPath><clipPath id="clipPath170" clipPathUnits="userSpaceOnUse"><path id="path168" d="m -29937.275,-16516.928 h 4766.693 v 4149.922 h -4766.693 z"></path></clipPath><clipPath id="SvgjsClipPath1659"><rect width="1000" height="1000" x="0" y="0" rx="350" ry="350"></rect></clipPath></defs><g clip-path="url(#clipPath14)" transform="matrix(1.3333333,0,0,-1.3333333,39916.366,-16489.341)" id="g10"><path id="path16" style="fill:#f07f1c;fill-opacity:1;fill-rule:evenodd;stroke:none" d="m -27343.361,-12369.231 c 1146.558,52.44 2118.104,-834.095 2170.545,-1980.908 44.419,-974.437 -588.982,-1816.611 -1483.2,-2084.258 -146.863,-44.617 -327.656,-81.694 -482.145,-82.205 -71.433,0 -142.979,8.986 -209.622,32.712 130.196,-5.244 250.753,12.558 379.956,34.101 1393.229,375.194 2196.312,2056.876 935.235,3170.466 -832.195,562.706 -1640.353,454.592 -2291.556,-310.308 142.214,-71.519 204.945,-111.912 325.672,-218.863 517.919,205.001 814.763,41.811 1125.185,-425.623 l -1653.251,-16.696 -15.392,-129.628 c 903.458,44.589 1684.006,52.214 2591.008,17.093 -1112.315,-119.906 -2103.392,-267.364 -3163.606,-579.543 l -139.011,-47.367 c -7.852,-1.588 -4.082,15.222 -6.52,23.074 -35.32,137.338 -57.515,279.949 -64.233,427.464 -52.441,1146.756 835.313,2118.133 1980.935,2170.489"></path><path id="path18" style="fill:#737373;fill-opacity:1;fill-rule:evenodd;stroke:none" d="m -25673.754,-14413.011 c -1066.904,-462.387 -2007.015,-1231.852 -2763.78,-2103.902 -14.003,232.922 -31.833,457.993 -44.56,635.357 -21.742,304.639 -237.799,629.66 -613.219,616.932 l -841.947,-28.289 c 1117.361,450.17 3115.616,807.363 4263.506,879.902"></path><path id="path20" style="fill:#ffffff;fill-opacity:1;fill-rule:evenodd;stroke:none" d="m -28123.597,-15254.674 -69.732,135.921 281.735,91.786 60.265,-126.085 z"></path><path id="path22" style="fill:#ffffff;fill-opacity:1;fill-rule:evenodd;stroke:none" d="m -27633.572,-15053.244 -54.113,115.653 267.591,62.193 47.196,-106.838 z"></path><path id="path24" style="fill:#ffffff;fill-opacity:1;fill-rule:evenodd;stroke:none" d="m -27172.998,-14903.008 -40.989,91.502 235.7,48.615 31.352,-75.26 z"></path><path id="path26" style="fill:#ffffff;fill-opacity:1;fill-rule:evenodd;stroke:none" d="m -28768.62,-15354.113 286.185,90.793 54.737,-126.397 -208.601,-85.266 z"></path><g id="g28"><g id="g30"></g><g id="g82"><g id="g80" clip-path="url(#clipPath34)"><path id="path36" style="fill:#1c1b18;fill-opacity:1;fill-rule:nonzero;stroke:none" d="m -29283.194,-14649.052 -42.264,-6.917 20.834,-127.587 -32.173,-5.187 -20.608,127.53 -42.293,-6.859 -3.401,20.607 116.475,19.049 z"></path><path id="path38" style="fill:#1c1b18;fill-opacity:1;fill-rule:nonzero;stroke:none" d="m -29067.42,-14745.09 -36,-5.867 -45.723,59.017 -25.682,-4.195 10.573,-64.744 -32.173,-5.301 -24.095,148.479 64.148,10.262 c 18.17,3.203 34.526,1.842 46.035,-1.786 14.598,-5.471 21.827,-15.392 24.094,-28.488 3.26,-20.495 -5.867,-35.207 -28.686,-45.326 z m -51.364,100.687 c -2.211,14.315 -14.74,19.956 -36.822,16.583 l -29.509,-4.876 7.058,-44.079 29.566,4.847 c 22.053,3.657 32.116,12.926 29.707,27.525"></path><path id="path40" style="fill:#1c1b18;fill-opacity:1;fill-rule:nonzero;stroke:none" d="m -28866.841,-14712.548 -35.235,-5.669 -19.615,36.822 -49.663,-8.136 -6.69,-41.215 -34.158,-5.443 31.947,157.493 33.137,5.471 z m -64.318,49.521 -12.728,23.698 c -1.814,3.033 -6.718,13.124 -14.938,31.351 -1.276,-8.079 -2.466,-19.842 -5.131,-34.611 l -4.394,-26.532 z"></path><path id="path42" style="fill:#1c1b18;fill-opacity:1;fill-rule:nonzero;stroke:none" d="m -28674.964,-14681.395 -26.305,-4.252 -68.542,70.157 c -4.847,6.435 -12.302,13.351 -20.239,21.997 1.899,-7.455 3.486,-17.546 5.499,-30.302 l 12.189,-73.389 -31.068,-5.074 -24.038,148.422 31.408,5.102 61.2,-62.901 c 5.443,-5.669 11.934,-12.982 20.466,-21.231 -2.041,7.257 -4.308,17.376 -6.066,29.31 l -10.715,65.282 31.947,5.244 z"></path><path id="path44" style="fill:#1c1b18;fill-opacity:1;fill-rule:nonzero;stroke:none" d="m -28494.425,-14612.627 c 2.041,-11.99 -2.013,-22.875 -11.537,-32.428 -9.723,-8.447 -24.69,-14.939 -44.844,-18.17 -25.342,-4.082 -46.574,1.02 -64.318,14.173 l 23.839,16.809 c 11.735,-8.56 25.285,-12.812 39.883,-10.346 17.405,2.835 26.448,10.715 24.463,23.272 -1.048,5.641 -4.875,10.829 -10.516,13.919 -5.273,3.656 -16.781,7.511 -33.165,11.31 -16.611,3.855 -28.149,7.71 -35.377,12.387 -10.12,6.038 -16.639,14.74 -18.425,24.633 -1.644,11.367 2.381,21.232 11.509,29.679 10.289,8.107 22.875,13.975 40.45,17.065 22.649,3.6 42.718,0.34 59.443,-11.169 l -21.232,-17.008 c -6.265,3.402 -12.728,6.265 -18,7.54 -4.082,1.191 -10.715,1.389 -17.405,0.369 -16.384,-2.835 -23.045,-9.666 -21.43,-19.616 0.851,-5.641 3.657,-10.488 9.128,-13.323 5.641,-3.061 14.74,-6.293 28.687,-9.496 18.226,-4.223 30.954,-8.079 39.628,-13.124 11.338,-6.492 17.376,-15.194 19.219,-26.476"></path><path id="path46" style="fill:#1c1b18;fill-opacity:1;fill-rule:nonzero;stroke:none" d="m -28312.214,-14514.661 c 2.409,-14.485 -2.721,-26.788 -14.599,-36.511 -11.508,-9.524 -25.88,-15.789 -44.078,-18.822 l -27.043,-4.308 9.638,-60.407 -32.117,-5.244 -23.896,148.394 60.293,9.694 c 18.425,3.09 33.364,1.616 46.29,-2.607 14.598,-6.095 23.272,-16.385 25.512,-30.189 z m -33.194,-6.067 c -1.446,8.136 -5.442,14.004 -12.331,16.045 -7.426,2.806 -15.392,3.401 -24.633,1.814 l -26.475,-4.224 7.625,-47.14 26.929,4.45 c 9.496,1.418 17.206,4.876 23.074,9.525 5.386,5.159 7.058,11.48 5.811,19.53"></path><path id="path48" style="fill:#1c1b18;fill-opacity:1;fill-rule:nonzero;stroke:none" d="m -28114.101,-14514.009 c 3.629,-22.649 1.616,-41.698 -7.483,-56.807 -9.638,-16.554 -26.646,-26.872 -49.323,-30.529 -23.273,-3.827 -42.038,0.794 -55.786,13.323 -13.351,10.913 -21.458,28.913 -25.087,50.995 -3.656,22.621 -1.587,42.236 7.456,57.175 8.957,16.413 25.483,26.901 48.557,30.586 23.443,3.997 42.888,-0.822 57.203,-13.38 12.558,-10.743 20.807,-28.658 24.463,-51.363 z m -31.918,-5.84 c -2.636,15.789 -7.058,27.695 -15.165,36.964 -8.079,10.913 -18.624,15.562 -31.748,13.578 -23.273,-3.855 -32.145,-24.662 -26.107,-61.654 2.409,-15.789 7.086,-28.148 14.4,-37.275 8.078,-10.318 18.567,-14.939 31.124,-12.87 23.839,3.856 33.534,24.038 27.496,61.257"></path><path id="path50" style="fill:#1c1b18;fill-opacity:1;fill-rule:nonzero;stroke:none" d="m -27902.608,-14555.849 -35.972,-5.868 -45.07,59.046 -26.504,-4.252 10.488,-64.63 -31.89,-5.301 -24.123,148.423 64.12,10.459 c 18.765,3.005 34.016,1.616 46.29,-2.211 14.371,-5.244 22.478,-14.938 24.689,-28.289 3.232,-20.24 -6.689,-35.377 -29.537,-45.298 z m -51.165,100.687 c -2.183,14.343 -14.372,20.239 -36.936,16.582 l -29.508,-4.847 6.831,-43.88 29.736,4.62 c 22.819,3.657 32.116,13.238 29.877,27.525"></path><path id="path52" style="fill:#1c1b18;fill-opacity:1;fill-rule:nonzero;stroke:none" d="m -27749.14,-14399.717 -42.038,-6.916 20.835,-127.814 -32.174,-5.018 -20.863,127.559 -42.207,-6.888 -3.232,20.608 116.277,19.049 z"></path><path id="path54" style="fill:#1c1b18;fill-opacity:1;fill-rule:nonzero;stroke:none" d="m -27419.584,-14477.414 -32.712,-5.273 -13.947,10.489 c -9.694,-11.084 -25.285,-18.737 -43.511,-21.771 -18.369,-2.806 -31.55,-1.218 -41.811,3.034 -9.922,5.442 -15.194,13.521 -17.008,24.207 -2.835,17.632 6.661,35.235 29.764,51.761 l -6.463,5.499 c -9.128,7.711 -14.4,11.962 -17.008,15.562 -4.479,4.848 -7.285,9.695 -8.107,14.599 -1.389,9.439 2.239,17.716 10.941,24.463 8.844,7.852 20.637,12.302 36.766,14.91 18.425,3.062 35.801,2.069 52.979,-2.778 l -12.387,-20.211 c -14.06,4.224 -27.44,6.01 -37.559,4.224 -14.315,-2.466 -19.162,-7.682 -18.199,-14.599 1.248,-7.058 4.876,-13.521 13.692,-21.033 l 48.982,-38.579 c 2.268,6.236 4.111,14.938 5.329,23.442 h 27.071 c -3.43,-18.028 -7.115,-31.521 -11.537,-41.244 z m -64.488,19.19 -37.786,30.53 c -12.331,-12.076 -17.83,-21.572 -16.214,-31.295 2.097,-12.756 11.366,-18.425 28.318,-15.591 11.338,1.843 19.445,7.682 25.682,16.356"></path><path id="path56" style="fill:#1c1b18;fill-opacity:1;fill-rule:nonzero;stroke:none" d="m -27144.794,-14432.712 -105.08,-17.008 -23.896,148.394 31.578,5.074 20.551,-128.381 73.644,11.962 z"></path><path id="path58" style="fill:#1c1b18;fill-opacity:1;fill-rule:nonzero;stroke:none" d="m -26963.008,-14327.008 c 3.657,-22.62 1.644,-41.584 -8.05,-56.92 -9.723,-16.384 -26.107,-26.787 -49.323,-30.585 -22.649,-3.629 -41.471,1.02 -55.843,13.549 -12.699,10.885 -20.806,28.914 -24.519,50.939 -3.572,22.62 -1.616,42.264 6.973,57.231 9.694,16.583 25.824,26.844 48.671,30.558 23.244,3.827 42.69,-0.681 56.409,-13.55 14.003,-10.573 21.884,-28.516 25.682,-51.222 z m -32.542,-6.009 c -2.636,15.76 -7.086,27.864 -14.513,36.935 -8.334,11.169 -19.247,15.846 -31.748,13.805 -24.095,-4.082 -32.797,-24.888 -26.958,-61.909 2.693,-15.704 7.711,-27.864 15.223,-36.964 6.661,-10.516 17.971,-14.967 30.5,-12.926 23.868,3.827 33.563,24.038 27.496,61.059"></path><path id="path60" style="fill:#1c1b18;fill-opacity:1;fill-rule:nonzero;stroke:none" d="m -26762.428,-14326.129 c 2.239,-13.805 -1.021,-24.718 -10.489,-34.583 -9.127,-10.545 -24.888,-17.631 -46.289,-21.09 -23.103,-3.826 -42.066,0.851 -56.977,13.38 -13.039,11.509 -20.919,28.885 -24.548,50.74 -3.656,24.038 -2.069,43.909 8.051,58.252 9.581,16.356 26.759,26.419 49.408,29.906 33.363,5.499 55.389,-2.41 66.869,-25.881 l -31.266,-10.686 c -3.657,7.086 -7.512,11.537 -13.153,13.748 -5.102,3.004 -12.104,3.231 -19.814,1.956 -12.359,-1.956 -20.438,-8.448 -24.917,-20.126 -4.819,-10.318 -5.244,-24.095 -2.438,-41.726 2.438,-14.372 6.917,-26.079 14.174,-35.802 8.334,-10.233 19.417,-14.74 33.165,-12.671 10.743,1.758 17.802,5.443 21.061,9.865 4.451,4.422 5.641,11.962 4.196,21.43 l -1.588,10.771 -25.852,-4.308 -3.288,20.041 58.252,9.552 z"></path><path id="path62" style="fill:#1c1b18;fill-opacity:1;fill-rule:nonzero;stroke:none" d="m -26648.362,-14352.038 -32.173,-5.301 -24.067,148.479 32.202,5.244 z"></path><path id="path64" style="fill:#1c1b18;fill-opacity:1;fill-rule:nonzero;stroke:none" d="m -26465.414,-14282.872 c 2.069,-11.963 -1.984,-23.018 -11.48,-32.315 -9.553,-8.561 -24.719,-14.769 -44.108,-18.085 -25.88,-4.252 -47.933,0.652 -65.055,13.974 l 23.811,16.781 c 11.736,-8.503 25.484,-12.67 39.203,-10.289 18.029,2.806 27.298,10.658 25.314,23.272 -0.992,5.613 -4.422,11.112 -10.743,13.748 -4.989,3.799 -16.782,7.682 -32.741,11.509 -16.781,3.798 -28.488,7.682 -36.368,12.331 -9.298,6.066 -15.222,14.711 -16.838,24.859 -2.041,11.141 1.871,21.033 10.772,29.509 9.467,8.164 22.847,13.975 40.422,16.951 22.649,3.657 42.463,0.51 59.216,-11.282 l -21.204,-16.752 c -6.888,3.231 -12.529,6.264 -17.376,7.455 -5.074,1.02 -11.168,1.36 -18.624,0.17 -15.193,-2.438 -23.074,-9.695 -21.401,-19.786 0.964,-5.499 4.422,-10.12 10.063,-12.926 5.471,-3.061 14.343,-6.321 28.516,-9.723 18.199,-4.195 31.55,-7.682 39.062,-12.954 11.338,-6.69 17.943,-15.109 19.559,-26.447"></path><path id="path66" style="fill:#1c1b18;fill-opacity:1;fill-rule:nonzero;stroke:none" d="m -26307.468,-14165.631 -42.264,-6.719 20.834,-127.672 -32.003,-5.301 -20.749,127.758 -42.123,-6.889 -3.402,20.608 116.476,19.049 z"></path><path id="path68" style="fill:#1c1b18;fill-opacity:1;fill-rule:nonzero;stroke:none" d="m -26186.769,-14277.005 -32.144,-5.074 -24.038,148.196 32.116,5.3 z"></path><path id="path70" style="fill:#1c1b18;fill-opacity:1;fill-rule:nonzero;stroke:none" d="m -25995.487,-14245.88 -111.826,-18.255 -24.293,148.422 107.66,17.376 3.203,-20.126 -74.863,-12.217 6.491,-39.629 48.359,7.909 3.402,-20.041 -48.558,-7.824 7.937,-48.557 79.285,12.926 z"></path><path id="path72" style="fill:#1c1b18;fill-opacity:1;fill-rule:nonzero;stroke:none" d="m -25801.795,-14214.472 -34.583,-5.556 -54.198,67.379 -15.534,-23.272 8.872,-54.029 -32.145,-5.159 -24.321,148.309 32.23,5.074 6.066,-37.616 c 1.644,-9.241 2.835,-16.951 3.232,-24.038 3.6,6.435 8.277,13.578 14.768,24.492 l 31.38,46.29 36.34,5.896 -41.811,-60.265 z"></path><path id="path74" style="fill:#1c1b18;fill-opacity:1;fill-rule:nonzero;stroke:none" d="m -28808.447,-13983.817 -14.91,91.53 c -1.389,8.93 -4.111,14.23 -6.747,17.235 -3.798,4.252 -7.88,5.613 -15.109,4.649 l -12.954,-2.268 c -47.707,-7.682 -97.852,-25.086 -132.463,-43.2 -43.455,-21.118 -65.905,-37.417 -59.017,-78.491 l 81.297,-501.647 c 1.588,-9.695 7.852,-15.761 15.137,-14.571 l 108.766,17.802 c 7.682,1.219 11.338,8.646 9.723,18.652 l -71.348,438.293 c 6.463,2.069 43.483,16.214 86.513,23.272 15.392,2.637 13.408,14.967 11.112,28.744 z m 569.792,-106.385 c -28.517,175.295 -73.814,308.948 -250.866,280.205 -176.599,-28.686 -176.315,-169.625 -147.827,-344.863 28.29,-175.379 72.567,-307.786 249.052,-279.071 177.137,28.744 178.186,168.378 149.641,343.729 z m -136.942,-22.195 c 21.062,-129.231 27.383,-181.644 -33.675,-191.735 -59.811,-9.468 -71.178,42.066 -92.268,171.269 -20.977,130.252 -26.674,182.608 33.194,192.274 61.143,9.921 71.631,-41.584 92.749,-171.808 z m 1387.332,-61.682 -67.181,413.207 c -24.009,147.259 -92.551,168.888 -191.197,152.929 -72.822,-11.934 -134.277,-56.807 -138.897,-61.087 -25.087,16.781 -60.662,28.488 -109.417,20.636 -48.133,-7.682 -104.741,-28.743 -140.741,-46.148 -44.674,-22.45 -66.104,-38.806 -59.244,-80.419 l 81.27,-500.825 c 1.644,-9.723 7.086,-15.987 14.768,-14.797 l 109.219,17.859 c 7.597,1.36 11.282,8.844 9.666,18.595 l -73.984,454.28 c 0,0 36,16.356 62.844,20.608 30.387,5.074 50.995,-11.31 60.661,-71.631 l 62.703,-384.917 c 1.417,-9.921 7.228,-15.959 14.938,-14.768 l 109.248,17.858 c 7.625,1.332 12.075,8.844 10.516,18.737 l -73.842,454.195 c 0,0 31.322,15.789 58.875,20.183 29.906,4.79 54,-10.914 63.638,-71.207 l 62.532,-384.944 c 1.843,-9.95 7.427,-15.931 15.137,-14.741 l 109.389,17.774 c 7.512,1.219 10.744,8.674 9.099,18.623 z m 530.986,192.076 -50.371,309.316 c -10.29,64.29 -31.352,113.046 -74.41,137.707 -30.501,18.171 -70.923,23.471 -124.554,14.769 -84.558,-13.776 -153.865,-58.592 -166.819,-70.554 -4.025,-4.082 -8.901,-9.27 -7.285,-19.616 0.425,-2.013 1.644,-4.479 2.069,-6.435 l 26.844,-82.743 c 2.268,-8.107 5.471,-9.865 10.347,-9.099 1.19,0.198 3.827,0.822 5.697,2.267 15.959,9.667 72.766,43.002 120.444,50.684 23.074,3.827 41.046,3.231 52.413,-1.389 15.279,-8.107 20.806,-26.107 25.427,-54.397 l 3.912,-23.613 -125.802,-52.015 c -49.153,-19.389 -110.806,-52.555 -87.59,-195.506 28.544,-175.323 127.417,-180.142 222.689,-164.806 45.808,7.483 80.618,18 109.786,33.165 49.295,26.504 71.263,44.107 57.203,132.265 z m -130.649,-25.909 c -3.826,-1.616 -27.127,-14.938 -53.971,-19.219 -25.852,-4.167 -65.084,-1.19 -76.252,67.947 -10.233,63.297 10.743,75.004 37.19,86.343 l 66.785,26.872 z m 736.385,23.244 -179.348,255.572 75.401,286.724 c 0.425,3.43 1.021,5.896 0.425,9.071 -1.615,10.318 -9.552,18.227 -13.294,17.632 l -107.603,-17.348 c -9.695,-1.673 -15.137,-3.459 -18.199,-19.248 l -33.93,-192.472 -106.158,171.014 c -7.285,12.926 -13.181,12.756 -21.657,11.339 l -109.785,-17.575 c -3.657,-0.822 -8.703,-10.715 -7.059,-21.09 0.567,-3.373 1.021,-5.414 3.402,-8.645 l 162.567,-248.117 -89.575,-299.083 c -0.624,-1.361 -1.219,-3.572 -0.624,-7.002 1.078,-6.917 5.33,-13.975 10.149,-13.351 l 120.699,19.616 c 5.471,1.02 9.269,7.058 10.289,14.371 l 46.659,208.432 120.387,-182.58 c 3.827,-5.244 8.674,-9.921 14.939,-8.929 l 119.905,19.474 c 4.649,0.539 6.293,9.071 5.244,15.732 -0.595,3.402 -1.615,5.471 -2.834,6.463 z"></path><path id="path76" style="fill:#1c1b18;fill-opacity:1;fill-rule:nonzero;stroke:none" d="m -27830.183,-14052.756 -13.606,83.65 c -2.013,12.36 -11.509,22.848 -22.167,21.005 l -210.727,-34.327 c -10.744,-1.644 -16.611,-14.344 -14.542,-26.901 l 13.521,-83.48 c 2.636,-15.818 15.364,-20.863 22.025,-19.588 l 210.898,34.129 c 7.653,1.248 16.979,10.744 14.598,25.512 z"></path><path id="path78" style="fill:#1c1b18;fill-opacity:1;fill-rule:nonzero;stroke:none" d="m -29249.348,-14244.265 c -30.387,175.72 -59.102,292.366 -280.687,269.49 l -176.145,-32.088 138.926,-828.198 125.774,20.381 -41.5,230.683 c 231.166,7.143 259.427,185.811 233.632,339.732 z m -243.128,-220.393 -55.757,342.935 c 173.679,106.101 234.34,-375.732 55.757,-342.935 z"></path></g></g><path id="path84" style="fill:#f07f1c;fill-opacity:1;fill-rule:evenodd;stroke:none" d="m -27343.361,-12369.231 c 1146.558,52.44 2118.104,-834.095 2170.545,-1980.908 44.419,-974.437 -588.982,-1816.611 -1483.2,-2084.258 -146.863,-44.617 -327.656,-81.694 -482.145,-82.205 -71.433,0 -142.979,8.986 -209.622,32.712 130.196,-5.244 250.753,12.558 379.956,34.101 1393.229,375.194 2196.312,2056.876 935.235,3170.466 -832.195,562.706 -1640.353,454.592 -2291.556,-310.308 142.214,-71.519 204.945,-111.912 325.672,-218.863 517.919,205.001 814.763,41.811 1125.185,-425.623 l -1653.251,-16.696 -15.392,-129.628 c 903.458,44.589 1684.006,52.214 2591.008,17.093 -1112.315,-119.906 -2103.392,-267.364 -3163.606,-579.543 l -139.011,-47.367 c -7.852,-1.588 -4.082,15.222 -6.52,23.074 -35.32,137.338 -57.515,279.949 -64.233,427.464 -52.441,1146.756 835.313,2118.133 1980.935,2170.489"></path><path id="path86" style="fill:#737373;fill-opacity:1;fill-rule:evenodd;stroke:none" d="m -25673.754,-14413.011 c -1066.904,-462.387 -2007.015,-1231.852 -2763.78,-2103.902 -14.003,232.922 -31.833,457.993 -44.56,635.357 -21.742,304.639 -237.799,629.66 -613.219,616.932 l -841.947,-28.289 c 1117.361,450.17 3115.616,807.363 4263.506,879.902"></path><path id="path88" style="fill:#ffffff;fill-opacity:1;fill-rule:evenodd;stroke:none" d="m -28123.597,-15254.674 -69.732,135.921 281.735,91.786 60.265,-126.085 z"></path><path id="path90" style="fill:#ffffff;fill-opacity:1;fill-rule:evenodd;stroke:none" d="m -27633.572,-15053.244 -54.113,115.653 267.591,62.193 47.196,-106.838 z"></path><path id="path92" style="fill:#ffffff;fill-opacity:1;fill-rule:evenodd;stroke:none" d="m -27172.998,-14903.008 -40.989,91.502 235.7,48.615 31.352,-75.26 z"></path><path id="path94" style="fill:#ffffff;fill-opacity:1;fill-rule:evenodd;stroke:none" d="m -28768.62,-15354.113 286.185,90.793 54.737,-126.397 -208.601,-85.266 z"></path><g id="g96"><g id="g98"></g><g id="g150"><g id="g148" clip-path="url(#clipPath102)"><path id="path104" style="fill:#1c1b18;fill-opacity:1;fill-rule:nonzero;stroke:none" d="m -29283.194,-14649.052 -42.264,-6.917 20.834,-127.587 -32.173,-5.187 -20.608,127.53 -42.293,-6.859 -3.401,20.607 116.475,19.049 z"></path><path id="path106" style="fill:#1c1b18;fill-opacity:1;fill-rule:nonzero;stroke:none" d="m -29067.42,-14745.09 -36,-5.867 -45.723,59.017 -25.682,-4.195 10.573,-64.744 -32.173,-5.301 -24.095,148.479 64.148,10.262 c 18.17,3.203 34.526,1.842 46.035,-1.786 14.598,-5.471 21.827,-15.392 24.094,-28.488 3.26,-20.495 -5.867,-35.207 -28.686,-45.326 z m -51.364,100.687 c -2.211,14.315 -14.74,19.956 -36.822,16.583 l -29.509,-4.876 7.058,-44.079 29.566,4.847 c 22.053,3.657 32.116,12.926 29.707,27.525"></path><path id="path108" style="fill:#1c1b18;fill-opacity:1;fill-rule:nonzero;stroke:none" d="m -28866.841,-14712.548 -35.235,-5.669 -19.615,36.822 -49.663,-8.136 -6.69,-41.215 -34.158,-5.443 31.947,157.493 33.137,5.471 z m -64.318,49.521 -12.728,23.698 c -1.814,3.033 -6.718,13.124 -14.938,31.351 -1.276,-8.079 -2.466,-19.842 -5.131,-34.611 l -4.394,-26.532 z"></path><path id="path110" style="fill:#1c1b18;fill-opacity:1;fill-rule:nonzero;stroke:none" d="m -28674.964,-14681.395 -26.305,-4.252 -68.542,70.157 c -4.847,6.435 -12.302,13.351 -20.239,21.997 1.899,-7.455 3.486,-17.546 5.499,-30.302 l 12.189,-73.389 -31.068,-5.074 -24.038,148.422 31.408,5.102 61.2,-62.901 c 5.443,-5.669 11.934,-12.982 20.466,-21.231 -2.041,7.257 -4.308,17.376 -6.066,29.31 l -10.715,65.282 31.947,5.244 z"></path><path id="path112" style="fill:#1c1b18;fill-opacity:1;fill-rule:nonzero;stroke:none" d="m -28494.425,-14612.627 c 2.041,-11.99 -2.013,-22.875 -11.537,-32.428 -9.723,-8.447 -24.69,-14.939 -44.844,-18.17 -25.342,-4.082 -46.574,1.02 -64.318,14.173 l 23.839,16.809 c 11.735,-8.56 25.285,-12.812 39.883,-10.346 17.405,2.835 26.448,10.715 24.463,23.272 -1.048,5.641 -4.875,10.829 -10.516,13.919 -5.273,3.656 -16.781,7.511 -33.165,11.31 -16.611,3.855 -28.149,7.71 -35.377,12.387 -10.12,6.038 -16.639,14.74 -18.425,24.633 -1.644,11.367 2.381,21.232 11.509,29.679 10.289,8.107 22.875,13.975 40.45,17.065 22.649,3.6 42.718,0.34 59.443,-11.169 l -21.232,-17.008 c -6.265,3.402 -12.728,6.265 -18,7.54 -4.082,1.191 -10.715,1.389 -17.405,0.369 -16.384,-2.835 -23.045,-9.666 -21.43,-19.616 0.851,-5.641 3.657,-10.488 9.128,-13.323 5.641,-3.061 14.74,-6.293 28.687,-9.496 18.226,-4.223 30.954,-8.079 39.628,-13.124 11.338,-6.492 17.376,-15.194 19.219,-26.476"></path><path id="path114" style="fill:#1c1b18;fill-opacity:1;fill-rule:nonzero;stroke:none" d="m -28312.214,-14514.661 c 2.409,-14.485 -2.721,-26.788 -14.599,-36.511 -11.508,-9.524 -25.88,-15.789 -44.078,-18.822 l -27.043,-4.308 9.638,-60.407 -32.117,-5.244 -23.896,148.394 60.293,9.694 c 18.425,3.09 33.364,1.616 46.29,-2.607 14.598,-6.095 23.272,-16.385 25.512,-30.189 z m -33.194,-6.067 c -1.446,8.136 -5.442,14.004 -12.331,16.045 -7.426,2.806 -15.392,3.401 -24.633,1.814 l -26.475,-4.224 7.625,-47.14 26.929,4.45 c 9.496,1.418 17.206,4.876 23.074,9.525 5.386,5.159 7.058,11.48 5.811,19.53"></path><path id="path116" style="fill:#1c1b18;fill-opacity:1;fill-rule:nonzero;stroke:none" d="m -28114.101,-14514.009 c 3.629,-22.649 1.616,-41.698 -7.483,-56.807 -9.638,-16.554 -26.646,-26.872 -49.323,-30.529 -23.273,-3.827 -42.038,0.794 -55.786,13.323 -13.351,10.913 -21.458,28.913 -25.087,50.995 -3.656,22.621 -1.587,42.236 7.456,57.175 8.957,16.413 25.483,26.901 48.557,30.586 23.443,3.997 42.888,-0.822 57.203,-13.38 12.558,-10.743 20.807,-28.658 24.463,-51.363 z m -31.918,-5.84 c -2.636,15.789 -7.058,27.695 -15.165,36.964 -8.079,10.913 -18.624,15.562 -31.748,13.578 -23.273,-3.855 -32.145,-24.662 -26.107,-61.654 2.409,-15.789 7.086,-28.148 14.4,-37.275 8.078,-10.318 18.567,-14.939 31.124,-12.87 23.839,3.856 33.534,24.038 27.496,61.257"></path><path id="path118" style="fill:#1c1b18;fill-opacity:1;fill-rule:nonzero;stroke:none" d="m -27902.608,-14555.849 -35.972,-5.868 -45.07,59.046 -26.504,-4.252 10.488,-64.63 -31.89,-5.301 -24.123,148.423 64.12,10.459 c 18.765,3.005 34.016,1.616 46.29,-2.211 14.371,-5.244 22.478,-14.938 24.689,-28.289 3.232,-20.24 -6.689,-35.377 -29.537,-45.298 z m -51.165,100.687 c -2.183,14.343 -14.372,20.239 -36.936,16.582 l -29.508,-4.847 6.831,-43.88 29.736,4.62 c 22.819,3.657 32.116,13.238 29.877,27.525"></path><path id="path120" style="fill:#1c1b18;fill-opacity:1;fill-rule:nonzero;stroke:none" d="m -27749.14,-14399.717 -42.038,-6.916 20.835,-127.814 -32.174,-5.018 -20.863,127.559 -42.207,-6.888 -3.232,20.608 116.277,19.049 z"></path><path id="path122" style="fill:#1c1b18;fill-opacity:1;fill-rule:nonzero;stroke:none" d="m -27419.584,-14477.414 -32.712,-5.273 -13.947,10.489 c -9.694,-11.084 -25.285,-18.737 -43.511,-21.771 -18.369,-2.806 -31.55,-1.218 -41.811,3.034 -9.922,5.442 -15.194,13.521 -17.008,24.207 -2.835,17.632 6.661,35.235 29.764,51.761 l -6.463,5.499 c -9.128,7.711 -14.4,11.962 -17.008,15.562 -4.479,4.848 -7.285,9.695 -8.107,14.599 -1.389,9.439 2.239,17.716 10.941,24.463 8.844,7.852 20.637,12.302 36.766,14.91 18.425,3.062 35.801,2.069 52.979,-2.778 l -12.387,-20.211 c -14.06,4.224 -27.44,6.01 -37.559,4.224 -14.315,-2.466 -19.162,-7.682 -18.199,-14.599 1.248,-7.058 4.876,-13.521 13.692,-21.033 l 48.982,-38.579 c 2.268,6.236 4.111,14.938 5.329,23.442 h 27.071 c -3.43,-18.028 -7.115,-31.521 -11.537,-41.244 z m -64.488,19.19 -37.786,30.53 c -12.331,-12.076 -17.83,-21.572 -16.214,-31.295 2.097,-12.756 11.366,-18.425 28.318,-15.591 11.338,1.843 19.445,7.682 25.682,16.356"></path><path id="path124" style="fill:#1c1b18;fill-opacity:1;fill-rule:nonzero;stroke:none" d="m -27144.794,-14432.712 -105.08,-17.008 -23.896,148.394 31.578,5.074 20.551,-128.381 73.644,11.962 z"></path><path id="path126" style="fill:#1c1b18;fill-opacity:1;fill-rule:nonzero;stroke:none" d="m -26963.008,-14327.008 c 3.657,-22.62 1.644,-41.584 -8.05,-56.92 -9.723,-16.384 -26.107,-26.787 -49.323,-30.585 -22.649,-3.629 -41.471,1.02 -55.843,13.549 -12.699,10.885 -20.806,28.914 -24.519,50.939 -3.572,22.62 -1.616,42.264 6.973,57.231 9.694,16.583 25.824,26.844 48.671,30.558 23.244,3.827 42.69,-0.681 56.409,-13.55 14.003,-10.573 21.884,-28.516 25.682,-51.222 z m -32.542,-6.009 c -2.636,15.76 -7.086,27.864 -14.513,36.935 -8.334,11.169 -19.247,15.846 -31.748,13.805 -24.095,-4.082 -32.797,-24.888 -26.958,-61.909 2.693,-15.704 7.711,-27.864 15.223,-36.964 6.661,-10.516 17.971,-14.967 30.5,-12.926 23.868,3.827 33.563,24.038 27.496,61.059"></path><path id="path128" style="fill:#1c1b18;fill-opacity:1;fill-rule:nonzero;stroke:none" d="m -26762.428,-14326.129 c 2.239,-13.805 -1.021,-24.718 -10.489,-34.583 -9.127,-10.545 -24.888,-17.631 -46.289,-21.09 -23.103,-3.826 -42.066,0.851 -56.977,13.38 -13.039,11.509 -20.919,28.885 -24.548,50.74 -3.656,24.038 -2.069,43.909 8.051,58.252 9.581,16.356 26.759,26.419 49.408,29.906 33.363,5.499 55.389,-2.41 66.869,-25.881 l -31.266,-10.686 c -3.657,7.086 -7.512,11.537 -13.153,13.748 -5.102,3.004 -12.104,3.231 -19.814,1.956 -12.359,-1.956 -20.438,-8.448 -24.917,-20.126 -4.819,-10.318 -5.244,-24.095 -2.438,-41.726 2.438,-14.372 6.917,-26.079 14.174,-35.802 8.334,-10.233 19.417,-14.74 33.165,-12.671 10.743,1.758 17.802,5.443 21.061,9.865 4.451,4.422 5.641,11.962 4.196,21.43 l -1.588,10.771 -25.852,-4.308 -3.288,20.041 58.252,9.552 z"></path><path id="path130" style="fill:#1c1b18;fill-opacity:1;fill-rule:nonzero;stroke:none" d="m -26648.362,-14352.038 -32.173,-5.301 -24.067,148.479 32.202,5.244 z"></path><path id="path132" style="fill:#1c1b18;fill-opacity:1;fill-rule:nonzero;stroke:none" d="m -26465.414,-14282.872 c 2.069,-11.963 -1.984,-23.018 -11.48,-32.315 -9.553,-8.561 -24.719,-14.769 -44.108,-18.085 -25.88,-4.252 -47.933,0.652 -65.055,13.974 l 23.811,16.781 c 11.736,-8.503 25.484,-12.67 39.203,-10.289 18.029,2.806 27.298,10.658 25.314,23.272 -0.992,5.613 -4.422,11.112 -10.743,13.748 -4.989,3.799 -16.782,7.682 -32.741,11.509 -16.781,3.798 -28.488,7.682 -36.368,12.331 -9.298,6.066 -15.222,14.711 -16.838,24.859 -2.041,11.141 1.871,21.033 10.772,29.509 9.467,8.164 22.847,13.975 40.422,16.951 22.649,3.657 42.463,0.51 59.216,-11.282 l -21.204,-16.752 c -6.888,3.231 -12.529,6.264 -17.376,7.455 -5.074,1.02 -11.168,1.36 -18.624,0.17 -15.193,-2.438 -23.074,-9.695 -21.401,-19.786 0.964,-5.499 4.422,-10.12 10.063,-12.926 5.471,-3.061 14.343,-6.321 28.516,-9.723 18.199,-4.195 31.55,-7.682 39.062,-12.954 11.338,-6.69 17.943,-15.109 19.559,-26.447"></path><path id="path134" style="fill:#1c1b18;fill-opacity:1;fill-rule:nonzero;stroke:none" d="m -26307.468,-14165.631 -42.264,-6.719 20.834,-127.672 -32.003,-5.301 -20.749,127.758 -42.123,-6.889 -3.402,20.608 116.476,19.049 z"></path><path id="path136" style="fill:#1c1b18;fill-opacity:1;fill-rule:nonzero;stroke:none" d="m -26186.769,-14277.005 -32.144,-5.074 -24.038,148.196 32.116,5.3 z"></path><path id="path138" style="fill:#1c1b18;fill-opacity:1;fill-rule:nonzero;stroke:none" d="m -25995.487,-14245.88 -111.826,-18.255 -24.293,148.422 107.66,17.376 3.203,-20.126 -74.863,-12.217 6.491,-39.629 48.359,7.909 3.402,-20.041 -48.558,-7.824 7.937,-48.557 79.285,12.926 z"></path><path id="path140" style="fill:#1c1b18;fill-opacity:1;fill-rule:nonzero;stroke:none" d="m -25801.795,-14214.472 -34.583,-5.556 -54.198,67.379 -15.534,-23.272 8.872,-54.029 -32.145,-5.159 -24.321,148.309 32.23,5.074 6.066,-37.616 c 1.644,-9.241 2.835,-16.951 3.232,-24.038 3.6,6.435 8.277,13.578 14.768,24.492 l 31.38,46.29 36.34,5.896 -41.811,-60.265 z"></path><path id="path142" style="fill:#1c1b18;fill-opacity:1;fill-rule:nonzero;stroke:none" d="m -28808.447,-13983.817 -14.91,91.53 c -1.389,8.93 -4.111,14.23 -6.747,17.235 -3.798,4.252 -7.88,5.613 -15.109,4.649 l -12.954,-2.268 c -47.707,-7.682 -97.852,-25.086 -132.463,-43.2 -43.455,-21.118 -65.905,-37.417 -59.017,-78.491 l 81.297,-501.647 c 1.588,-9.695 7.852,-15.761 15.137,-14.571 l 108.766,17.802 c 7.682,1.219 11.338,8.646 9.723,18.652 l -71.348,438.293 c 6.463,2.069 43.483,16.214 86.513,23.272 15.392,2.637 13.408,14.967 11.112,28.744 z m 569.792,-106.385 c -28.517,175.295 -73.814,308.948 -250.866,280.205 -176.599,-28.686 -176.315,-169.625 -147.827,-344.863 28.29,-175.379 72.567,-307.786 249.052,-279.071 177.137,28.744 178.186,168.378 149.641,343.729 z m -136.942,-22.195 c 21.062,-129.231 27.383,-181.644 -33.675,-191.735 -59.811,-9.468 -71.178,42.066 -92.268,171.269 -20.977,130.252 -26.674,182.608 33.194,192.274 61.143,9.921 71.631,-41.584 92.749,-171.808 z m 1387.332,-61.682 -67.181,413.207 c -24.009,147.259 -92.551,168.888 -191.197,152.929 -72.822,-11.934 -134.277,-56.807 -138.897,-61.087 -25.087,16.781 -60.662,28.488 -109.417,20.636 -48.133,-7.682 -104.741,-28.743 -140.741,-46.148 -44.674,-22.45 -66.104,-38.806 -59.244,-80.419 l 81.27,-500.825 c 1.644,-9.723 7.086,-15.987 14.768,-14.797 l 109.219,17.859 c 7.597,1.36 11.282,8.844 9.666,18.595 l -73.984,454.28 c 0,0 36,16.356 62.844,20.608 30.387,5.074 50.995,-11.31 60.661,-71.631 l 62.703,-384.917 c 1.417,-9.921 7.228,-15.959 14.938,-14.768 l 109.248,17.858 c 7.625,1.332 12.075,8.844 10.516,18.737 l -73.842,454.195 c 0,0 31.322,15.789 58.875,20.183 29.906,4.79 54,-10.914 63.638,-71.207 l 62.532,-384.944 c 1.843,-9.95 7.427,-15.931 15.137,-14.741 l 109.389,17.774 c 7.512,1.219 10.744,8.674 9.099,18.623 z m 530.986,192.076 -50.371,309.316 c -10.29,64.29 -31.352,113.046 -74.41,137.707 -30.501,18.171 -70.923,23.471 -124.554,14.769 -84.558,-13.776 -153.865,-58.592 -166.819,-70.554 -4.025,-4.082 -8.901,-9.27 -7.285,-19.616 0.425,-2.013 1.644,-4.479 2.069,-6.435 l 26.844,-82.743 c 2.268,-8.107 5.471,-9.865 10.347,-9.099 1.19,0.198 3.827,0.822 5.697,2.267 15.959,9.667 72.766,43.002 120.444,50.684 23.074,3.827 41.046,3.231 52.413,-1.389 15.279,-8.107 20.806,-26.107 25.427,-54.397 l 3.912,-23.613 -125.802,-52.015 c -49.153,-19.389 -110.806,-52.555 -87.59,-195.506 28.544,-175.323 127.417,-180.142 222.689,-164.806 45.808,7.483 80.618,18 109.786,33.165 49.295,26.504 71.263,44.107 57.203,132.265 z m -130.649,-25.909 c -3.826,-1.616 -27.127,-14.938 -53.971,-19.219 -25.852,-4.167 -65.084,-1.19 -76.252,67.947 -10.233,63.297 10.743,75.004 37.19,86.343 l 66.785,26.872 z m 736.385,23.244 -179.348,255.572 75.401,286.724 c 0.425,3.43 1.021,5.896 0.425,9.071 -1.615,10.318 -9.552,18.227 -13.294,17.632 l -107.603,-17.348 c -9.695,-1.673 -15.137,-3.459 -18.199,-19.248 l -33.93,-192.472 -106.158,171.014 c -7.285,12.926 -13.181,12.756 -21.657,11.339 l -109.785,-17.575 c -3.657,-0.822 -8.703,-10.715 -7.059,-21.09 0.567,-3.373 1.021,-5.414 3.402,-8.645 l 162.567,-248.117 -89.575,-299.083 c -0.624,-1.361 -1.219,-3.572 -0.624,-7.002 1.078,-6.917 5.33,-13.975 10.149,-13.351 l 120.699,19.616 c 5.471,1.02 9.269,7.058 10.289,14.371 l 46.659,208.432 120.387,-182.58 c 3.827,-5.244 8.674,-9.921 14.939,-8.929 l 119.905,19.474 c 4.649,0.539 6.293,9.071 5.244,15.732 -0.595,3.402 -1.615,5.471 -2.834,6.463 z"></path><path id="path144" style="fill:#1c1b18;fill-opacity:1;fill-rule:nonzero;stroke:none" d="m -27830.183,-14052.756 -13.606,83.65 c -2.013,12.36 -11.509,22.848 -22.167,21.005 l -210.727,-34.327 c -10.744,-1.644 -16.611,-14.344 -14.542,-26.901 l 13.521,-83.48 c 2.636,-15.818 15.364,-20.863 22.025,-19.588 l 210.898,34.129 c 7.653,1.248 16.979,10.744 14.598,25.512 z"></path><path id="path146" style="fill:#1c1b18;fill-opacity:1;fill-rule:nonzero;stroke:none" d="m -29249.348,-14244.265 c -30.387,175.72 -59.102,292.366 -280.687,269.49 l -176.145,-32.088 138.926,-828.198 125.774,20.381 -41.5,230.683 c 231.166,7.143 259.427,185.811 233.632,339.732 z m -243.128,-220.393 -55.757,342.935 c 173.679,106.101 234.34,-375.732 55.757,-342.935 z"></path></g></g><path id="path152" style="fill:#f07f1c;fill-opacity:1;fill-rule:evenodd;stroke:none" d="m -27343.361,-12369.231 c 1146.558,52.44 2118.104,-834.095 2170.545,-1980.908 44.419,-974.437 -588.982,-1816.611 -1483.2,-2084.258 -146.863,-44.617 -327.656,-81.694 -482.145,-82.205 -71.433,0 -142.979,8.986 -209.622,32.712 130.196,-5.244 250.753,12.558 379.956,34.101 1393.229,375.194 2196.312,2056.876 935.235,3170.466 -832.195,562.706 -1640.353,454.592 -2291.556,-310.308 142.214,-71.519 204.945,-111.912 325.672,-218.863 517.919,205.001 814.763,41.811 1125.185,-425.623 l -1653.251,-16.696 -15.392,-129.628 c 903.458,44.589 1684.006,52.214 2591.008,17.093 -1112.315,-119.906 -2103.392,-267.364 -3163.606,-579.543 l -139.011,-47.367 c -7.852,-1.588 -4.082,15.222 -6.52,23.074 -35.32,137.338 -57.515,279.949 -64.233,427.464 -52.441,1146.756 835.313,2118.133 1980.935,2170.489"></path><path id="path154" style="fill:#737373;fill-opacity:1;fill-rule:evenodd;stroke:none" d="m -25673.754,-14413.011 c -1066.904,-462.387 -2007.015,-1231.852 -2763.78,-2103.902 -14.003,232.922 -31.833,457.993 -44.56,635.357 -21.742,304.639 -237.799,629.66 -613.219,616.932 l -841.947,-28.289 c 1117.361,450.17 3115.616,807.363 4263.506,879.902"></path><path id="path156" style="fill:#ffffff;fill-opacity:1;fill-rule:evenodd;stroke:none" d="m -28123.597,-15254.674 -69.732,135.921 281.735,91.786 60.265,-126.085 z"></path><path id="path158" style="fill:#ffffff;fill-opacity:1;fill-rule:evenodd;stroke:none" d="m -27633.572,-15053.244 -54.113,115.653 267.591,62.193 47.196,-106.838 z"></path><path id="path160" style="fill:#ffffff;fill-opacity:1;fill-rule:evenodd;stroke:none" d="m -27172.998,-14903.008 -40.989,91.502 235.7,48.615 31.352,-75.26 z"></path><path id="path162" style="fill:#ffffff;fill-opacity:1;fill-rule:evenodd;stroke:none" d="m -28768.62,-15354.113 286.185,90.793 54.737,-126.397 -208.601,-85.266 z"></path><g id="g164"><g id="g166"></g><g id="g218"><g id="g216" clip-path="url(#clipPath170)"><path id="path172" style="fill:#1c1b18;fill-opacity:1;fill-rule:nonzero;stroke:none" d="m -29283.194,-14649.052 -42.264,-6.917 20.834,-127.587 -32.173,-5.187 -20.608,127.53 -42.293,-6.859 -3.401,20.607 116.475,19.049 z"></path><path id="path174" style="fill:#1c1b18;fill-opacity:1;fill-rule:nonzero;stroke:none" d="m -29067.42,-14745.09 -36,-5.867 -45.723,59.017 -25.682,-4.195 10.573,-64.744 -32.173,-5.301 -24.095,148.479 64.148,10.262 c 18.17,3.203 34.526,1.842 46.035,-1.786 14.598,-5.471 21.827,-15.392 24.094,-28.488 3.26,-20.495 -5.867,-35.207 -28.686,-45.326 z m -51.364,100.687 c -2.211,14.315 -14.74,19.956 -36.822,16.583 l -29.509,-4.876 7.058,-44.079 29.566,4.847 c 22.053,3.657 32.116,12.926 29.707,27.525"></path><path id="path176" style="fill:#1c1b18;fill-opacity:1;fill-rule:nonzero;stroke:none" d="m -28866.841,-14712.548 -35.235,-5.669 -19.615,36.822 -49.663,-8.136 -6.69,-41.215 -34.158,-5.443 31.947,157.493 33.137,5.471 z m -64.318,49.521 -12.728,23.698 c -1.814,3.033 -6.718,13.124 -14.938,31.351 -1.276,-8.079 -2.466,-19.842 -5.131,-34.611 l -4.394,-26.532 z"></path><path id="path178" style="fill:#1c1b18;fill-opacity:1;fill-rule:nonzero;stroke:none" d="m -28674.964,-14681.395 -26.305,-4.252 -68.542,70.157 c -4.847,6.435 -12.302,13.351 -20.239,21.997 1.899,-7.455 3.486,-17.546 5.499,-30.302 l 12.189,-73.389 -31.068,-5.074 -24.038,148.422 31.408,5.102 61.2,-62.901 c 5.443,-5.669 11.934,-12.982 20.466,-21.231 -2.041,7.257 -4.308,17.376 -6.066,29.31 l -10.715,65.282 31.947,5.244 z"></path><path id="path180" style="fill:#1c1b18;fill-opacity:1;fill-rule:nonzero;stroke:none" d="m -28494.425,-14612.627 c 2.041,-11.99 -2.013,-22.875 -11.537,-32.428 -9.723,-8.447 -24.69,-14.939 -44.844,-18.17 -25.342,-4.082 -46.574,1.02 -64.318,14.173 l 23.839,16.809 c 11.735,-8.56 25.285,-12.812 39.883,-10.346 17.405,2.835 26.448,10.715 24.463,23.272 -1.048,5.641 -4.875,10.829 -10.516,13.919 -5.273,3.656 -16.781,7.511 -33.165,11.31 -16.611,3.855 -28.149,7.71 -35.377,12.387 -10.12,6.038 -16.639,14.74 -18.425,24.633 -1.644,11.367 2.381,21.232 11.509,29.679 10.289,8.107 22.875,13.975 40.45,17.065 22.649,3.6 42.718,0.34 59.443,-11.169 l -21.232,-17.008 c -6.265,3.402 -12.728,6.265 -18,7.54 -4.082,1.191 -10.715,1.389 -17.405,0.369 -16.384,-2.835 -23.045,-9.666 -21.43,-19.616 0.851,-5.641 3.657,-10.488 9.128,-13.323 5.641,-3.061 14.74,-6.293 28.687,-9.496 18.226,-4.223 30.954,-8.079 39.628,-13.124 11.338,-6.492 17.376,-15.194 19.219,-26.476"></path><path id="path182" style="fill:#1c1b18;fill-opacity:1;fill-rule:nonzero;stroke:none" d="m -28312.214,-14514.661 c 2.409,-14.485 -2.721,-26.788 -14.599,-36.511 -11.508,-9.524 -25.88,-15.789 -44.078,-18.822 l -27.043,-4.308 9.638,-60.407 -32.117,-5.244 -23.896,148.394 60.293,9.694 c 18.425,3.09 33.364,1.616 46.29,-2.607 14.598,-6.095 23.272,-16.385 25.512,-30.189 z m -33.194,-6.067 c -1.446,8.136 -5.442,14.004 -12.331,16.045 -7.426,2.806 -15.392,3.401 -24.633,1.814 l -26.475,-4.224 7.625,-47.14 26.929,4.45 c 9.496,1.418 17.206,4.876 23.074,9.525 5.386,5.159 7.058,11.48 5.811,19.53"></path><path id="path184" style="fill:#1c1b18;fill-opacity:1;fill-rule:nonzero;stroke:none" d="m -28114.101,-14514.009 c 3.629,-22.649 1.616,-41.698 -7.483,-56.807 -9.638,-16.554 -26.646,-26.872 -49.323,-30.529 -23.273,-3.827 -42.038,0.794 -55.786,13.323 -13.351,10.913 -21.458,28.913 -25.087,50.995 -3.656,22.621 -1.587,42.236 7.456,57.175 8.957,16.413 25.483,26.901 48.557,30.586 23.443,3.997 42.888,-0.822 57.203,-13.38 12.558,-10.743 20.807,-28.658 24.463,-51.363 z m -31.918,-5.84 c -2.636,15.789 -7.058,27.695 -15.165,36.964 -8.079,10.913 -18.624,15.562 -31.748,13.578 -23.273,-3.855 -32.145,-24.662 -26.107,-61.654 2.409,-15.789 7.086,-28.148 14.4,-37.275 8.078,-10.318 18.567,-14.939 31.124,-12.87 23.839,3.856 33.534,24.038 27.496,61.257"></path><path id="path186" style="fill:#1c1b18;fill-opacity:1;fill-rule:nonzero;stroke:none" d="m -27902.608,-14555.849 -35.972,-5.868 -45.07,59.046 -26.504,-4.252 10.488,-64.63 -31.89,-5.301 -24.123,148.423 64.12,10.459 c 18.765,3.005 34.016,1.616 46.29,-2.211 14.371,-5.244 22.478,-14.938 24.689,-28.289 3.232,-20.24 -6.689,-35.377 -29.537,-45.298 z m -51.165,100.687 c -2.183,14.343 -14.372,20.239 -36.936,16.582 l -29.508,-4.847 6.831,-43.88 29.736,4.62 c 22.819,3.657 32.116,13.238 29.877,27.525"></path><path id="path188" style="fill:#1c1b18;fill-opacity:1;fill-rule:nonzero;stroke:none" d="m -27749.14,-14399.717 -42.038,-6.916 20.835,-127.814 -32.174,-5.018 -20.863,127.559 -42.207,-6.888 -3.232,20.608 116.277,19.049 z"></path><path id="path190" style="fill:#1c1b18;fill-opacity:1;fill-rule:nonzero;stroke:none" d="m -27419.584,-14477.414 -32.712,-5.273 -13.947,10.489 c -9.694,-11.084 -25.285,-18.737 -43.511,-21.771 -18.369,-2.806 -31.55,-1.218 -41.811,3.034 -9.922,5.442 -15.194,13.521 -17.008,24.207 -2.835,17.632 6.661,35.235 29.764,51.761 l -6.463,5.499 c -9.128,7.711 -14.4,11.962 -17.008,15.562 -4.479,4.848 -7.285,9.695 -8.107,14.599 -1.389,9.439 2.239,17.716 10.941,24.463 8.844,7.852 20.637,12.302 36.766,14.91 18.425,3.062 35.801,2.069 52.979,-2.778 l -12.387,-20.211 c -14.06,4.224 -27.44,6.01 -37.559,4.224 -14.315,-2.466 -19.162,-7.682 -18.199,-14.599 1.248,-7.058 4.876,-13.521 13.692,-21.033 l 48.982,-38.579 c 2.268,6.236 4.111,14.938 5.329,23.442 h 27.071 c -3.43,-18.028 -7.115,-31.521 -11.537,-41.244 z m -64.488,19.19 -37.786,30.53 c -12.331,-12.076 -17.83,-21.572 -16.214,-31.295 2.097,-12.756 11.366,-18.425 28.318,-15.591 11.338,1.843 19.445,7.682 25.682,16.356"></path><path id="path192" style="fill:#1c1b18;fill-opacity:1;fill-rule:nonzero;stroke:none" d="m -27144.794,-14432.712 -105.08,-17.008 -23.896,148.394 31.578,5.074 20.551,-128.381 73.644,11.962 z"></path><path id="path194" style="fill:#1c1b18;fill-opacity:1;fill-rule:nonzero;stroke:none" d="m -26963.008,-14327.008 c 3.657,-22.62 1.644,-41.584 -8.05,-56.92 -9.723,-16.384 -26.107,-26.787 -49.323,-30.585 -22.649,-3.629 -41.471,1.02 -55.843,13.549 -12.699,10.885 -20.806,28.914 -24.519,50.939 -3.572,22.62 -1.616,42.264 6.973,57.231 9.694,16.583 25.824,26.844 48.671,30.558 23.244,3.827 42.69,-0.681 56.409,-13.55 14.003,-10.573 21.884,-28.516 25.682,-51.222 z m -32.542,-6.009 c -2.636,15.76 -7.086,27.864 -14.513,36.935 -8.334,11.169 -19.247,15.846 -31.748,13.805 -24.095,-4.082 -32.797,-24.888 -26.958,-61.909 2.693,-15.704 7.711,-27.864 15.223,-36.964 6.661,-10.516 17.971,-14.967 30.5,-12.926 23.868,3.827 33.563,24.038 27.496,61.059"></path><path id="path196" style="fill:#1c1b18;fill-opacity:1;fill-rule:nonzero;stroke:none" d="m -26762.428,-14326.129 c 2.239,-13.805 -1.021,-24.718 -10.489,-34.583 -9.127,-10.545 -24.888,-17.631 -46.289,-21.09 -23.103,-3.826 -42.066,0.851 -56.977,13.38 -13.039,11.509 -20.919,28.885 -24.548,50.74 -3.656,24.038 -2.069,43.909 8.051,58.252 9.581,16.356 26.759,26.419 49.408,29.906 33.363,5.499 55.389,-2.41 66.869,-25.881 l -31.266,-10.686 c -3.657,7.086 -7.512,11.537 -13.153,13.748 -5.102,3.004 -12.104,3.231 -19.814,1.956 -12.359,-1.956 -20.438,-8.448 -24.917,-20.126 -4.819,-10.318 -5.244,-24.095 -2.438,-41.726 2.438,-14.372 6.917,-26.079 14.174,-35.802 8.334,-10.233 19.417,-14.74 33.165,-12.671 10.743,1.758 17.802,5.443 21.061,9.865 4.451,4.422 5.641,11.962 4.196,21.43 l -1.588,10.771 -25.852,-4.308 -3.288,20.041 58.252,9.552 z"></path><path id="path198" style="fill:#1c1b18;fill-opacity:1;fill-rule:nonzero;stroke:none" d="m -26648.362,-14352.038 -32.173,-5.301 -24.067,148.479 32.202,5.244 z"></path><path id="path200" style="fill:#1c1b18;fill-opacity:1;fill-rule:nonzero;stroke:none" d="m -26465.414,-14282.872 c 2.069,-11.963 -1.984,-23.018 -11.48,-32.315 -9.553,-8.561 -24.719,-14.769 -44.108,-18.085 -25.88,-4.252 -47.933,0.652 -65.055,13.974 l 23.811,16.781 c 11.736,-8.503 25.484,-12.67 39.203,-10.289 18.029,2.806 27.298,10.658 25.314,23.272 -0.992,5.613 -4.422,11.112 -10.743,13.748 -4.989,3.799 -16.782,7.682 -32.741,11.509 -16.781,3.798 -28.488,7.682 -36.368,12.331 -9.298,6.066 -15.222,14.711 -16.838,24.859 -2.041,11.141 1.871,21.033 10.772,29.509 9.467,8.164 22.847,13.975 40.422,16.951 22.649,3.657 42.463,0.51 59.216,-11.282 l -21.204,-16.752 c -6.888,3.231 -12.529,6.264 -17.376,7.455 -5.074,1.02 -11.168,1.36 -18.624,0.17 -15.193,-2.438 -23.074,-9.695 -21.401,-19.786 0.964,-5.499 4.422,-10.12 10.063,-12.926 5.471,-3.061 14.343,-6.321 28.516,-9.723 18.199,-4.195 31.55,-7.682 39.062,-12.954 11.338,-6.69 17.943,-15.109 19.559,-26.447"></path><path id="path202" style="fill:#1c1b18;fill-opacity:1;fill-rule:nonzero;stroke:none" d="m -26307.468,-14165.631 -42.264,-6.719 20.834,-127.672 -32.003,-5.301 -20.749,127.758 -42.123,-6.889 -3.402,20.608 116.476,19.049 z"></path><path id="path204" style="fill:#1c1b18;fill-opacity:1;fill-rule:nonzero;stroke:none" d="m -26186.769,-14277.005 -32.144,-5.074 -24.038,148.196 32.116,5.3 z"></path><path id="path206" style="fill:#1c1b18;fill-opacity:1;fill-rule:nonzero;stroke:none" d="m -25995.487,-14245.88 -111.826,-18.255 -24.293,148.422 107.66,17.376 3.203,-20.126 -74.863,-12.217 6.491,-39.629 48.359,7.909 3.402,-20.041 -48.558,-7.824 7.937,-48.557 79.285,12.926 z"></path><path id="path208" style="fill:#1c1b18;fill-opacity:1;fill-rule:nonzero;stroke:none" d="m -25801.795,-14214.472 -34.583,-5.556 -54.198,67.379 -15.534,-23.272 8.872,-54.029 -32.145,-5.159 -24.321,148.309 32.23,5.074 6.066,-37.616 c 1.644,-9.241 2.835,-16.951 3.232,-24.038 3.6,6.435 8.277,13.578 14.768,24.492 l 31.38,46.29 36.34,5.896 -41.811,-60.265 z"></path><path id="path210" style="fill:#1c1b18;fill-opacity:1;fill-rule:nonzero;stroke:none" d="m -28808.447,-13983.817 -14.91,91.53 c -1.389,8.93 -4.111,14.23 -6.747,17.235 -3.798,4.252 -7.88,5.613 -15.109,4.649 l -12.954,-2.268 c -47.707,-7.682 -97.852,-25.086 -132.463,-43.2 -43.455,-21.118 -65.905,-37.417 -59.017,-78.491 l 81.297,-501.647 c 1.588,-9.695 7.852,-15.761 15.137,-14.571 l 108.766,17.802 c 7.682,1.219 11.338,8.646 9.723,18.652 l -71.348,438.293 c 6.463,2.069 43.483,16.214 86.513,23.272 15.392,2.637 13.408,14.967 11.112,28.744 z m 569.792,-106.385 c -28.517,175.295 -73.814,308.948 -250.866,280.205 -176.599,-28.686 -176.315,-169.625 -147.827,-344.863 28.29,-175.379 72.567,-307.786 249.052,-279.071 177.137,28.744 178.186,168.378 149.641,343.729 z m -136.942,-22.195 c 21.062,-129.231 27.383,-181.644 -33.675,-191.735 -59.811,-9.468 -71.178,42.066 -92.268,171.269 -20.977,130.252 -26.674,182.608 33.194,192.274 61.143,9.921 71.631,-41.584 92.749,-171.808 z m 1387.332,-61.682 -67.181,413.207 c -24.009,147.259 -92.551,168.888 -191.197,152.929 -72.822,-11.934 -134.277,-56.807 -138.897,-61.087 -25.087,16.781 -60.662,28.488 -109.417,20.636 -48.133,-7.682 -104.741,-28.743 -140.741,-46.148 -44.674,-22.45 -66.104,-38.806 -59.244,-80.419 l 81.27,-500.825 c 1.644,-9.723 7.086,-15.987 14.768,-14.797 l 109.219,17.859 c 7.597,1.36 11.282,8.844 9.666,18.595 l -73.984,454.28 c 0,0 36,16.356 62.844,20.608 30.387,5.074 50.995,-11.31 60.661,-71.631 l 62.703,-384.917 c 1.417,-9.921 7.228,-15.959 14.938,-14.768 l 109.248,17.858 c 7.625,1.332 12.075,8.844 10.516,18.737 l -73.842,454.195 c 0,0 31.322,15.789 58.875,20.183 29.906,4.79 54,-10.914 63.638,-71.207 l 62.532,-384.944 c 1.843,-9.95 7.427,-15.931 15.137,-14.741 l 109.389,17.774 c 7.512,1.219 10.744,8.674 9.099,18.623 z m 530.986,192.076 -50.371,309.316 c -10.29,64.29 -31.352,113.046 -74.41,137.707 -30.501,18.171 -70.923,23.471 -124.554,14.769 -84.558,-13.776 -153.865,-58.592 -166.819,-70.554 -4.025,-4.082 -8.901,-9.27 -7.285,-19.616 0.425,-2.013 1.644,-4.479 2.069,-6.435 l 26.844,-82.743 c 2.268,-8.107 5.471,-9.865 10.347,-9.099 1.19,0.198 3.827,0.822 5.697,2.267 15.959,9.667 72.766,43.002 120.444,50.684 23.074,3.827 41.046,3.231 52.413,-1.389 15.279,-8.107 20.806,-26.107 25.427,-54.397 l 3.912,-23.613 -125.802,-52.015 c -49.153,-19.389 -110.806,-52.555 -87.59,-195.506 28.544,-175.323 127.417,-180.142 222.689,-164.806 45.808,7.483 80.618,18 109.786,33.165 49.295,26.504 71.263,44.107 57.203,132.265 z m -130.649,-25.909 c -3.826,-1.616 -27.127,-14.938 -53.971,-19.219 -25.852,-4.167 -65.084,-1.19 -76.252,67.947 -10.233,63.297 10.743,75.004 37.19,86.343 l 66.785,26.872 z m 736.385,23.244 -179.348,255.572 75.401,286.724 c 0.425,3.43 1.021,5.896 0.425,9.071 -1.615,10.318 -9.552,18.227 -13.294,17.632 l -107.603,-17.348 c -9.695,-1.673 -15.137,-3.459 -18.199,-19.248 l -33.93,-192.472 -106.158,171.014 c -7.285,12.926 -13.181,12.756 -21.657,11.339 l -109.785,-17.575 c -3.657,-0.822 -8.703,-10.715 -7.059,-21.09 0.567,-3.373 1.021,-5.414 3.402,-8.645 l 162.567,-248.117 -89.575,-299.083 c -0.624,-1.361 -1.219,-3.572 -0.624,-7.002 1.078,-6.917 5.33,-13.975 10.149,-13.351 l 120.699,19.616 c 5.471,1.02 9.269,7.058 10.289,14.371 l 46.659,208.432 120.387,-182.58 c 3.827,-5.244 8.674,-9.921 14.939,-8.929 l 119.905,19.474 c 4.649,0.539 6.293,9.071 5.244,15.732 -0.595,3.402 -1.615,5.471 -2.834,6.463 z"></path><path id="path212" style="fill:#1c1b18;fill-opacity:1;fill-rule:nonzero;stroke:none" d="m -27830.183,-14052.756 -13.606,83.65 c -2.013,12.36 -11.509,22.848 -22.167,21.005 l -210.727,-34.327 c -10.744,-1.644 -16.611,-14.344 -14.542,-26.901 l 13.521,-83.48 c 2.636,-15.818 15.364,-20.863 22.025,-19.588 l 210.898,34.129 c 7.653,1.248 16.979,10.744 14.598,25.512 z"></path><path id="path214" style="fill:#1c1b18;fill-opacity:1;fill-rule:nonzero;stroke:none" d="m -29249.348,-14244.265 c -30.387,175.72 -59.102,292.366 -280.687,269.49 l -176.145,-32.088 138.926,-828.198 125.774,20.381 -41.5,230.683 c 231.166,7.143 259.427,185.811 233.632,339.732 z m -243.128,-220.393 -55.757,342.935 c 173.679,106.101 234.34,-375.732 55.757,-342.935 z"></path></g></g></g></g></g></g></svg></svg></g></g></svg></g><g id="dark-icon"><svg xmlns="http://www.w3.org/2000/svg" version="1.1" xmlns:xlink="http://www.w3.org/1999/xlink" width="1000" height="1000"><g clip-path="url(#SvgjsClipPath1660)"><rect width="1000" height="1000" fill="#ffffff"></rect><g transform="matrix(0.11013925803241283,0,0,0.11013925803241283,150,195.28707663865634)"><svg xmlns="http://www.w3.org/2000/svg" version="1.1" xmlns:xlink="http://www.w3.org/1999/xlink" width="6355.5903" height="5533.23"><svg xmlns:dc="http://purl.org/dc/elements/1.1/" xmlns:cc="http://creativecommons.org/ns#" xmlns:rdf="http://www.w3.org/1999/02/22-rdf-syntax-ns#" xmlns:svg="http://www.w3.org/2000/svg" xmlns="http://www.w3.org/2000/svg" viewBox="0 0 6355.5903 5533.23" height="5533.23" width="6355.5903" xml:space="preserve" id="svg2" version="1.1"><metadata id="metadata8"><rdf:rdf><cc:work rdf:about=""><dc:format>image/svg+xml</dc:format><dc:type rdf:resource="http://purl.org/dc/dcmitype/StillImage"></dc:type></cc:work></rdf:rdf></metadata><defs id="defs6"><clipPath id="clipPath14" clipPathUnits="userSpaceOnUse"><path id="path12" d="m -29937.275,-16516.928 h 4766.693 v 4149.922 h -4766.693 z"></path></clipPath><clipPath id="clipPath34" clipPathUnits="userSpaceOnUse"><path id="path32" d="m -29937.275,-16516.928 h 4766.693 v 4149.922 h -4766.693 z"></path></clipPath><clipPath id="clipPath102" clipPathUnits="userSpaceOnUse"><path id="path100" d="m -29937.275,-16516.928 h 4766.693 v 4149.922 h -4766.693 z"></path></clipPath><clipPath id="clipPath170" clipPathUnits="userSpaceOnUse"><path id="path168" d="m -29937.275,-16516.928 h 4766.693 v 4149.922 h -4766.693 z"></path></clipPath><clipPath id="SvgjsClipPath1660"><rect width="1000" height="1000" x="0" y="0" rx="350" ry="350"></rect></clipPath></defs><g clip-path="url(#clipPath14)" transform="matrix(1.3333333,0,0,-1.3333333,39916.366,-16489.341)" id="g10"><path id="path16" style="fill:#f07f1c;fill-opacity:1;fill-rule:evenodd;stroke:none" d="m -27343.361,-12369.231 c 1146.558,52.44 2118.104,-834.095 2170.545,-1980.908 44.419,-974.437 -588.982,-1816.611 -1483.2,-2084.258 -146.863,-44.617 -327.656,-81.694 -482.145,-82.205 -71.433,0 -142.979,8.986 -209.622,32.712 130.196,-5.244 250.753,12.558 379.956,34.101 1393.229,375.194 2196.312,2056.876 935.235,3170.466 -832.195,562.706 -1640.353,454.592 -2291.556,-310.308 142.214,-71.519 204.945,-111.912 325.672,-218.863 517.919,205.001 814.763,41.811 1125.185,-425.623 l -1653.251,-16.696 -15.392,-129.628 c 903.458,44.589 1684.006,52.214 2591.008,17.093 -1112.315,-119.906 -2103.392,-267.364 -3163.606,-579.543 l -139.011,-47.367 c -7.852,-1.588 -4.082,15.222 -6.52,23.074 -35.32,137.338 -57.515,279.949 -64.233,427.464 -52.441,1146.756 835.313,2118.133 1980.935,2170.489"></path><path id="path18" style="fill:#737373;fill-opacity:1;fill-rule:evenodd;stroke:none" d="m -25673.754,-14413.011 c -1066.904,-462.387 -2007.015,-1231.852 -2763.78,-2103.902 -14.003,232.922 -31.833,457.993 -44.56,635.357 -21.742,304.639 -237.799,629.66 -613.219,616.932 l -841.947,-28.289 c 1117.361,450.17 3115.616,807.363 4263.506,879.902"></path><path id="path20" style="fill:#ffffff;fill-opacity:1;fill-rule:evenodd;stroke:none" d="m -28123.597,-15254.674 -69.732,135.921 281.735,91.786 60.265,-126.085 z"></path><path id="path22" style="fill:#ffffff;fill-opacity:1;fill-rule:evenodd;stroke:none" d="m -27633.572,-15053.244 -54.113,115.653 267.591,62.193 47.196,-106.838 z"></path><path id="path24" style="fill:#ffffff;fill-opacity:1;fill-rule:evenodd;stroke:none" d="m -27172.998,-14903.008 -40.989,91.502 235.7,48.615 31.352,-75.26 z"></path><path id="path26" style="fill:#ffffff;fill-opacity:1;fill-rule:evenodd;stroke:none" d="m -28768.62,-15354.113 286.185,90.793 54.737,-126.397 -208.601,-85.266 z"></path><g id="g28"><g id="g30"></g><g id="g82"><g id="g80" clip-path="url(#clipPath34)"><path id="path36" style="fill:#1c1b18;fill-opacity:1;fill-rule:nonzero;stroke:none" d="m -29283.194,-14649.052 -42.264,-6.917 20.834,-127.587 -32.173,-5.187 -20.608,127.53 -42.293,-6.859 -3.401,20.607 116.475,19.049 z"></path><path id="path38" style="fill:#1c1b18;fill-opacity:1;fill-rule:nonzero;stroke:none" d="m -29067.42,-14745.09 -36,-5.867 -45.723,59.017 -25.682,-4.195 10.573,-64.744 -32.173,-5.301 -24.095,148.479 64.148,10.262 c 18.17,3.203 34.526,1.842 46.035,-1.786 14.598,-5.471 21.827,-15.392 24.094,-28.488 3.26,-20.495 -5.867,-35.207 -28.686,-45.326 z m -51.364,100.687 c -2.211,14.315 -14.74,19.956 -36.822,16.583 l -29.509,-4.876 7.058,-44.079 29.566,4.847 c 22.053,3.657 32.116,12.926 29.707,27.525"></path><path id="path40" style="fill:#1c1b18;fill-opacity:1;fill-rule:nonzero;stroke:none" d="m -28866.841,-14712.548 -35.235,-5.669 -19.615,36.822 -49.663,-8.136 -6.69,-41.215 -34.158,-5.443 31.947,157.493 33.137,5.471 z m -64.318,49.521 -12.728,23.698 c -1.814,3.033 -6.718,13.124 -14.938,31.351 -1.276,-8.079 -2.466,-19.842 -5.131,-34.611 l -4.394,-26.532 z"></path><path id="path42" style="fill:#1c1b18;fill-opacity:1;fill-rule:nonzero;stroke:none" d="m -28674.964,-14681.395 -26.305,-4.252 -68.542,70.157 c -4.847,6.435 -12.302,13.351 -20.239,21.997 1.899,-7.455 3.486,-17.546 5.499,-30.302 l 12.189,-73.389 -31.068,-5.074 -24.038,148.422 31.408,5.102 61.2,-62.901 c 5.443,-5.669 11.934,-12.982 20.466,-21.231 -2.041,7.257 -4.308,17.376 -6.066,29.31 l -10.715,65.282 31.947,5.244 z"></path><path id="path44" style="fill:#1c1b18;fill-opacity:1;fill-rule:nonzero;stroke:none" d="m -28494.425,-14612.627 c 2.041,-11.99 -2.013,-22.875 -11.537,-32.428 -9.723,-8.447 -24.69,-14.939 -44.844,-18.17 -25.342,-4.082 -46.574,1.02 -64.318,14.173 l 23.839,16.809 c 11.735,-8.56 25.285,-12.812 39.883,-10.346 17.405,2.835 26.448,10.715 24.463,23.272 -1.048,5.641 -4.875,10.829 -10.516,13.919 -5.273,3.656 -16.781,7.511 -33.165,11.31 -16.611,3.855 -28.149,7.71 -35.377,12.387 -10.12,6.038 -16.639,14.74 -18.425,24.633 -1.644,11.367 2.381,21.232 11.509,29.679 10.289,8.107 22.875,13.975 40.45,17.065 22.649,3.6 42.718,0.34 59.443,-11.169 l -21.232,-17.008 c -6.265,3.402 -12.728,6.265 -18,7.54 -4.082,1.191 -10.715,1.389 -17.405,0.369 -16.384,-2.835 -23.045,-9.666 -21.43,-19.616 0.851,-5.641 3.657,-10.488 9.128,-13.323 5.641,-3.061 14.74,-6.293 28.687,-9.496 18.226,-4.223 30.954,-8.079 39.628,-13.124 11.338,-6.492 17.376,-15.194 19.219,-26.476"></path><path id="path46" style="fill:#1c1b18;fill-opacity:1;fill-rule:nonzero;stroke:none" d="m -28312.214,-14514.661 c 2.409,-14.485 -2.721,-26.788 -14.599,-36.511 -11.508,-9.524 -25.88,-15.789 -44.078,-18.822 l -27.043,-4.308 9.638,-60.407 -32.117,-5.244 -23.896,148.394 60.293,9.694 c 18.425,3.09 33.364,1.616 46.29,-2.607 14.598,-6.095 23.272,-16.385 25.512,-30.189 z m -33.194,-6.067 c -1.446,8.136 -5.442,14.004 -12.331,16.045 -7.426,2.806 -15.392,3.401 -24.633,1.814 l -26.475,-4.224 7.625,-47.14 26.929,4.45 c 9.496,1.418 17.206,4.876 23.074,9.525 5.386,5.159 7.058,11.48 5.811,19.53"></path><path id="path48" style="fill:#1c1b18;fill-opacity:1;fill-rule:nonzero;stroke:none" d="m -28114.101,-14514.009 c 3.629,-22.649 1.616,-41.698 -7.483,-56.807 -9.638,-16.554 -26.646,-26.872 -49.323,-30.529 -23.273,-3.827 -42.038,0.794 -55.786,13.323 -13.351,10.913 -21.458,28.913 -25.087,50.995 -3.656,22.621 -1.587,42.236 7.456,57.175 8.957,16.413 25.483,26.901 48.557,30.586 23.443,3.997 42.888,-0.822 57.203,-13.38 12.558,-10.743 20.807,-28.658 24.463,-51.363 z m -31.918,-5.84 c -2.636,15.789 -7.058,27.695 -15.165,36.964 -8.079,10.913 -18.624,15.562 -31.748,13.578 -23.273,-3.855 -32.145,-24.662 -26.107,-61.654 2.409,-15.789 7.086,-28.148 14.4,-37.275 8.078,-10.318 18.567,-14.939 31.124,-12.87 23.839,3.856 33.534,24.038 27.496,61.257"></path><path id="path50" style="fill:#1c1b18;fill-opacity:1;fill-rule:nonzero;stroke:none" d="m -27902.608,-14555.849 -35.972,-5.868 -45.07,59.046 -26.504,-4.252 10.488,-64.63 -31.89,-5.301 -24.123,148.423 64.12,10.459 c 18.765,3.005 34.016,1.616 46.29,-2.211 14.371,-5.244 22.478,-14.938 24.689,-28.289 3.232,-20.24 -6.689,-35.377 -29.537,-45.298 z m -51.165,100.687 c -2.183,14.343 -14.372,20.239 -36.936,16.582 l -29.508,-4.847 6.831,-43.88 29.736,4.62 c 22.819,3.657 32.116,13.238 29.877,27.525"></path><path id="path52" style="fill:#1c1b18;fill-opacity:1;fill-rule:nonzero;stroke:none" d="m -27749.14,-14399.717 -42.038,-6.916 20.835,-127.814 -32.174,-5.018 -20.863,127.559 -42.207,-6.888 -3.232,20.608 116.277,19.049 z"></path><path id="path54" style="fill:#1c1b18;fill-opacity:1;fill-rule:nonzero;stroke:none" d="m -27419.584,-14477.414 -32.712,-5.273 -13.947,10.489 c -9.694,-11.084 -25.285,-18.737 -43.511,-21.771 -18.369,-2.806 -31.55,-1.218 -41.811,3.034 -9.922,5.442 -15.194,13.521 -17.008,24.207 -2.835,17.632 6.661,35.235 29.764,51.761 l -6.463,5.499 c -9.128,7.711 -14.4,11.962 -17.008,15.562 -4.479,4.848 -7.285,9.695 -8.107,14.599 -1.389,9.439 2.239,17.716 10.941,24.463 8.844,7.852 20.637,12.302 36.766,14.91 18.425,3.062 35.801,2.069 52.979,-2.778 l -12.387,-20.211 c -14.06,4.224 -27.44,6.01 -37.559,4.224 -14.315,-2.466 -19.162,-7.682 -18.199,-14.599 1.248,-7.058 4.876,-13.521 13.692,-21.033 l 48.982,-38.579 c 2.268,6.236 4.111,14.938 5.329,23.442 h 27.071 c -3.43,-18.028 -7.115,-31.521 -11.537,-41.244 z m -64.488,19.19 -37.786,30.53 c -12.331,-12.076 -17.83,-21.572 -16.214,-31.295 2.097,-12.756 11.366,-18.425 28.318,-15.591 11.338,1.843 19.445,7.682 25.682,16.356"></path><path id="path56" style="fill:#1c1b18;fill-opacity:1;fill-rule:nonzero;stroke:none" d="m -27144.794,-14432.712 -105.08,-17.008 -23.896,148.394 31.578,5.074 20.551,-128.381 73.644,11.962 z"></path><path id="path58" style="fill:#1c1b18;fill-opacity:1;fill-rule:nonzero;stroke:none" d="m -26963.008,-14327.008 c 3.657,-22.62 1.644,-41.584 -8.05,-56.92 -9.723,-16.384 -26.107,-26.787 -49.323,-30.585 -22.649,-3.629 -41.471,1.02 -55.843,13.549 -12.699,10.885 -20.806,28.914 -24.519,50.939 -3.572,22.62 -1.616,42.264 6.973,57.231 9.694,16.583 25.824,26.844 48.671,30.558 23.244,3.827 42.69,-0.681 56.409,-13.55 14.003,-10.573 21.884,-28.516 25.682,-51.222 z m -32.542,-6.009 c -2.636,15.76 -7.086,27.864 -14.513,36.935 -8.334,11.169 -19.247,15.846 -31.748,13.805 -24.095,-4.082 -32.797,-24.888 -26.958,-61.909 2.693,-15.704 7.711,-27.864 15.223,-36.964 6.661,-10.516 17.971,-14.967 30.5,-12.926 23.868,3.827 33.563,24.038 27.496,61.059"></path><path id="path60" style="fill:#1c1b18;fill-opacity:1;fill-rule:nonzero;stroke:none" d="m -26762.428,-14326.129 c 2.239,-13.805 -1.021,-24.718 -10.489,-34.583 -9.127,-10.545 -24.888,-17.631 -46.289,-21.09 -23.103,-3.826 -42.066,0.851 -56.977,13.38 -13.039,11.509 -20.919,28.885 -24.548,50.74 -3.656,24.038 -2.069,43.909 8.051,58.252 9.581,16.356 26.759,26.419 49.408,29.906 33.363,5.499 55.389,-2.41 66.869,-25.881 l -31.266,-10.686 c -3.657,7.086 -7.512,11.537 -13.153,13.748 -5.102,3.004 -12.104,3.231 -19.814,1.956 -12.359,-1.956 -20.438,-8.448 -24.917,-20.126 -4.819,-10.318 -5.244,-24.095 -2.438,-41.726 2.438,-14.372 6.917,-26.079 14.174,-35.802 8.334,-10.233 19.417,-14.74 33.165,-12.671 10.743,1.758 17.802,5.443 21.061,9.865 4.451,4.422 5.641,11.962 4.196,21.43 l -1.588,10.771 -25.852,-4.308 -3.288,20.041 58.252,9.552 z"></path><path id="path62" style="fill:#1c1b18;fill-opacity:1;fill-rule:nonzero;stroke:none" d="m -26648.362,-14352.038 -32.173,-5.301 -24.067,148.479 32.202,5.244 z"></path><path id="path64" style="fill:#1c1b18;fill-opacity:1;fill-rule:nonzero;stroke:none" d="m -26465.414,-14282.872 c 2.069,-11.963 -1.984,-23.018 -11.48,-32.315 -9.553,-8.561 -24.719,-14.769 -44.108,-18.085 -25.88,-4.252 -47.933,0.652 -65.055,13.974 l 23.811,16.781 c 11.736,-8.503 25.484,-12.67 39.203,-10.289 18.029,2.806 27.298,10.658 25.314,23.272 -0.992,5.613 -4.422,11.112 -10.743,13.748 -4.989,3.799 -16.782,7.682 -32.741,11.509 -16.781,3.798 -28.488,7.682 -36.368,12.331 -9.298,6.066 -15.222,14.711 -16.838,24.859 -2.041,11.141 1.871,21.033 10.772,29.509 9.467,8.164 22.847,13.975 40.422,16.951 22.649,3.657 42.463,0.51 59.216,-11.282 l -21.204,-16.752 c -6.888,3.231 -12.529,6.264 -17.376,7.455 -5.074,1.02 -11.168,1.36 -18.624,0.17 -15.193,-2.438 -23.074,-9.695 -21.401,-19.786 0.964,-5.499 4.422,-10.12 10.063,-12.926 5.471,-3.061 14.343,-6.321 28.516,-9.723 18.199,-4.195 31.55,-7.682 39.062,-12.954 11.338,-6.69 17.943,-15.109 19.559,-26.447"></path><path id="path66" style="fill:#1c1b18;fill-opacity:1;fill-rule:nonzero;stroke:none" d="m -26307.468,-14165.631 -42.264,-6.719 20.834,-127.672 -32.003,-5.301 -20.749,127.758 -42.123,-6.889 -3.402,20.608 116.476,19.049 z"></path><path id="path68" style="fill:#1c1b18;fill-opacity:1;fill-rule:nonzero;stroke:none" d="m -26186.769,-14277.005 -32.144,-5.074 -24.038,148.196 32.116,5.3 z"></path><path id="path70" style="fill:#1c1b18;fill-opacity:1;fill-rule:nonzero;stroke:none" d="m -25995.487,-14245.88 -111.826,-18.255 -24.293,148.422 107.66,17.376 3.203,-20.126 -74.863,-12.217 6.491,-39.629 48.359,7.909 3.402,-20.041 -48.558,-7.824 7.937,-48.557 79.285,12.926 z"></path><path id="path72" style="fill:#1c1b18;fill-opacity:1;fill-rule:nonzero;stroke:none" d="m -25801.795,-14214.472 -34.583,-5.556 -54.198,67.379 -15.534,-23.272 8.872,-54.029 -32.145,-5.159 -24.321,148.309 32.23,5.074 6.066,-37.616 c 1.644,-9.241 2.835,-16.951 3.232,-24.038 3.6,6.435 8.277,13.578 14.768,24.492 l 31.38,46.29 36.34,5.896 -41.811,-60.265 z"></path><path id="path74" style="fill:#1c1b18;fill-opacity:1;fill-rule:nonzero;stroke:none" d="m -28808.447,-13983.817 -14.91,91.53 c -1.389,8.93 -4.111,14.23 -6.747,17.235 -3.798,4.252 -7.88,5.613 -15.109,4.649 l -12.954,-2.268 c -47.707,-7.682 -97.852,-25.086 -132.463,-43.2 -43.455,-21.118 -65.905,-37.417 -59.017,-78.491 l 81.297,-501.647 c 1.588,-9.695 7.852,-15.761 15.137,-14.571 l 108.766,17.802 c 7.682,1.219 11.338,8.646 9.723,18.652 l -71.348,438.293 c 6.463,2.069 43.483,16.214 86.513,23.272 15.392,2.637 13.408,14.967 11.112,28.744 z m 569.792,-106.385 c -28.517,175.295 -73.814,308.948 -250.866,280.205 -176.599,-28.686 -176.315,-169.625 -147.827,-344.863 28.29,-175.379 72.567,-307.786 249.052,-279.071 177.137,28.744 178.186,168.378 149.641,343.729 z m -136.942,-22.195 c 21.062,-129.231 27.383,-181.644 -33.675,-191.735 -59.811,-9.468 -71.178,42.066 -92.268,171.269 -20.977,130.252 -26.674,182.608 33.194,192.274 61.143,9.921 71.631,-41.584 92.749,-171.808 z m 1387.332,-61.682 -67.181,413.207 c -24.009,147.259 -92.551,168.888 -191.197,152.929 -72.822,-11.934 -134.277,-56.807 -138.897,-61.087 -25.087,16.781 -60.662,28.488 -109.417,20.636 -48.133,-7.682 -104.741,-28.743 -140.741,-46.148 -44.674,-22.45 -66.104,-38.806 -59.244,-80.419 l 81.27,-500.825 c 1.644,-9.723 7.086,-15.987 14.768,-14.797 l 109.219,17.859 c 7.597,1.36 11.282,8.844 9.666,18.595 l -73.984,454.28 c 0,0 36,16.356 62.844,20.608 30.387,5.074 50.995,-11.31 60.661,-71.631 l 62.703,-384.917 c 1.417,-9.921 7.228,-15.959 14.938,-14.768 l 109.248,17.858 c 7.625,1.332 12.075,8.844 10.516,18.737 l -73.842,454.195 c 0,0 31.322,15.789 58.875,20.183 29.906,4.79 54,-10.914 63.638,-71.207 l 62.532,-384.944 c 1.843,-9.95 7.427,-15.931 15.137,-14.741 l 109.389,17.774 c 7.512,1.219 10.744,8.674 9.099,18.623 z m 530.986,192.076 -50.371,309.316 c -10.29,64.29 -31.352,113.046 -74.41,137.707 -30.501,18.171 -70.923,23.471 -124.554,14.769 -84.558,-13.776 -153.865,-58.592 -166.819,-70.554 -4.025,-4.082 -8.901,-9.27 -7.285,-19.616 0.425,-2.013 1.644,-4.479 2.069,-6.435 l 26.844,-82.743 c 2.268,-8.107 5.471,-9.865 10.347,-9.099 1.19,0.198 3.827,0.822 5.697,2.267 15.959,9.667 72.766,43.002 120.444,50.684 23.074,3.827 41.046,3.231 52.413,-1.389 15.279,-8.107 20.806,-26.107 25.427,-54.397 l 3.912,-23.613 -125.802,-52.015 c -49.153,-19.389 -110.806,-52.555 -87.59,-195.506 28.544,-175.323 127.417,-180.142 222.689,-164.806 45.808,7.483 80.618,18 109.786,33.165 49.295,26.504 71.263,44.107 57.203,132.265 z m -130.649,-25.909 c -3.826,-1.616 -27.127,-14.938 -53.971,-19.219 -25.852,-4.167 -65.084,-1.19 -76.252,67.947 -10.233,63.297 10.743,75.004 37.19,86.343 l 66.785,26.872 z m 736.385,23.244 -179.348,255.572 75.401,286.724 c 0.425,3.43 1.021,5.896 0.425,9.071 -1.615,10.318 -9.552,18.227 -13.294,17.632 l -107.603,-17.348 c -9.695,-1.673 -15.137,-3.459 -18.199,-19.248 l -33.93,-192.472 -106.158,171.014 c -7.285,12.926 -13.181,12.756 -21.657,11.339 l -109.785,-17.575 c -3.657,-0.822 -8.703,-10.715 -7.059,-21.09 0.567,-3.373 1.021,-5.414 3.402,-8.645 l 162.567,-248.117 -89.575,-299.083 c -0.624,-1.361 -1.219,-3.572 -0.624,-7.002 1.078,-6.917 5.33,-13.975 10.149,-13.351 l 120.699,19.616 c 5.471,1.02 9.269,7.058 10.289,14.371 l 46.659,208.432 120.387,-182.58 c 3.827,-5.244 8.674,-9.921 14.939,-8.929 l 119.905,19.474 c 4.649,0.539 6.293,9.071 5.244,15.732 -0.595,3.402 -1.615,5.471 -2.834,6.463 z"></path><path id="path76" style="fill:#1c1b18;fill-opacity:1;fill-rule:nonzero;stroke:none" d="m -27830.183,-14052.756 -13.606,83.65 c -2.013,12.36 -11.509,22.848 -22.167,21.005 l -210.727,-34.327 c -10.744,-1.644 -16.611,-14.344 -14.542,-26.901 l 13.521,-83.48 c 2.636,-15.818 15.364,-20.863 22.025,-19.588 l 210.898,34.129 c 7.653,1.248 16.979,10.744 14.598,25.512 z"></path><path id="path78" style="fill:#1c1b18;fill-opacity:1;fill-rule:nonzero;stroke:none" d="m -29249.348,-14244.265 c -30.387,175.72 -59.102,292.366 -280.687,269.49 l -176.145,-32.088 138.926,-828.198 125.774,20.381 -41.5,230.683 c 231.166,7.143 259.427,185.811 233.632,339.732 z m -243.128,-220.393 -55.757,342.935 c 173.679,106.101 234.34,-375.732 55.757,-342.935 z"></path></g></g><path id="path84" style="fill:#f07f1c;fill-opacity:1;fill-rule:evenodd;stroke:none" d="m -27343.361,-12369.231 c 1146.558,52.44 2118.104,-834.095 2170.545,-1980.908 44.419,-974.437 -588.982,-1816.611 -1483.2,-2084.258 -146.863,-44.617 -327.656,-81.694 -482.145,-82.205 -71.433,0 -142.979,8.986 -209.622,32.712 130.196,-5.244 250.753,12.558 379.956,34.101 1393.229,375.194 2196.312,2056.876 935.235,3170.466 -832.195,562.706 -1640.353,454.592 -2291.556,-310.308 142.214,-71.519 204.945,-111.912 325.672,-218.863 517.919,205.001 814.763,41.811 1125.185,-425.623 l -1653.251,-16.696 -15.392,-129.628 c 903.458,44.589 1684.006,52.214 2591.008,17.093 -1112.315,-119.906 -2103.392,-267.364 -3163.606,-579.543 l -139.011,-47.367 c -7.852,-1.588 -4.082,15.222 -6.52,23.074 -35.32,137.338 -57.515,279.949 -64.233,427.464 -52.441,1146.756 835.313,2118.133 1980.935,2170.489"></path><path id="path86" style="fill:#737373;fill-opacity:1;fill-rule:evenodd;stroke:none" d="m -25673.754,-14413.011 c -1066.904,-462.387 -2007.015,-1231.852 -2763.78,-2103.902 -14.003,232.922 -31.833,457.993 -44.56,635.357 -21.742,304.639 -237.799,629.66 -613.219,616.932 l -841.947,-28.289 c 1117.361,450.17 3115.616,807.363 4263.506,879.902"></path><path id="path88" style="fill:#ffffff;fill-opacity:1;fill-rule:evenodd;stroke:none" d="m -28123.597,-15254.674 -69.732,135.921 281.735,91.786 60.265,-126.085 z"></path><path id="path90" style="fill:#ffffff;fill-opacity:1;fill-rule:evenodd;stroke:none" d="m -27633.572,-15053.244 -54.113,115.653 267.591,62.193 47.196,-106.838 z"></path><path id="path92" style="fill:#ffffff;fill-opacity:1;fill-rule:evenodd;stroke:none" d="m -27172.998,-14903.008 -40.989,91.502 235.7,48.615 31.352,-75.26 z"></path><path id="path94" style="fill:#ffffff;fill-opacity:1;fill-rule:evenodd;stroke:none" d="m -28768.62,-15354.113 286.185,90.793 54.737,-126.397 -208.601,-85.266 z"></path><g id="g96"><g id="g98"></g><g id="g150"><g id="g148" clip-path="url(#clipPath102)"><path id="path104" style="fill:#1c1b18;fill-opacity:1;fill-rule:nonzero;stroke:none" d="m -29283.194,-14649.052 -42.264,-6.917 20.834,-127.587 -32.173,-5.187 -20.608,127.53 -42.293,-6.859 -3.401,20.607 116.475,19.049 z"></path><path id="path106" style="fill:#1c1b18;fill-opacity:1;fill-rule:nonzero;stroke:none" d="m -29067.42,-14745.09 -36,-5.867 -45.723,59.017 -25.682,-4.195 10.573,-64.744 -32.173,-5.301 -24.095,148.479 64.148,10.262 c 18.17,3.203 34.526,1.842 46.035,-1.786 14.598,-5.471 21.827,-15.392 24.094,-28.488 3.26,-20.495 -5.867,-35.207 -28.686,-45.326 z m -51.364,100.687 c -2.211,14.315 -14.74,19.956 -36.822,16.583 l -29.509,-4.876 7.058,-44.079 29.566,4.847 c 22.053,3.657 32.116,12.926 29.707,27.525"></path><path id="path108" style="fill:#1c1b18;fill-opacity:1;fill-rule:nonzero;stroke:none" d="m -28866.841,-14712.548 -35.235,-5.669 -19.615,36.822 -49.663,-8.136 -6.69,-41.215 -34.158,-5.443 31.947,157.493 33.137,5.471 z m -64.318,49.521 -12.728,23.698 c -1.814,3.033 -6.718,13.124 -14.938,31.351 -1.276,-8.079 -2.466,-19.842 -5.131,-34.611 l -4.394,-26.532 z"></path><path id="path110" style="fill:#1c1b18;fill-opacity:1;fill-rule:nonzero;stroke:none" d="m -28674.964,-14681.395 -26.305,-4.252 -68.542,70.157 c -4.847,6.435 -12.302,13.351 -20.239,21.997 1.899,-7.455 3.486,-17.546 5.499,-30.302 l 12.189,-73.389 -31.068,-5.074 -24.038,148.422 31.408,5.102 61.2,-62.901 c 5.443,-5.669 11.934,-12.982 20.466,-21.231 -2.041,7.257 -4.308,17.376 -6.066,29.31 l -10.715,65.282 31.947,5.244 z"></path><path id="path112" style="fill:#1c1b18;fill-opacity:1;fill-rule:nonzero;stroke:none" d="m -28494.425,-14612.627 c 2.041,-11.99 -2.013,-22.875 -11.537,-32.428 -9.723,-8.447 -24.69,-14.939 -44.844,-18.17 -25.342,-4.082 -46.574,1.02 -64.318,14.173 l 23.839,16.809 c 11.735,-8.56 25.285,-12.812 39.883,-10.346 17.405,2.835 26.448,10.715 24.463,23.272 -1.048,5.641 -4.875,10.829 -10.516,13.919 -5.273,3.656 -16.781,7.511 -33.165,11.31 -16.611,3.855 -28.149,7.71 -35.377,12.387 -10.12,6.038 -16.639,14.74 -18.425,24.633 -1.644,11.367 2.381,21.232 11.509,29.679 10.289,8.107 22.875,13.975 40.45,17.065 22.649,3.6 42.718,0.34 59.443,-11.169 l -21.232,-17.008 c -6.265,3.402 -12.728,6.265 -18,7.54 -4.082,1.191 -10.715,1.389 -17.405,0.369 -16.384,-2.835 -23.045,-9.666 -21.43,-19.616 0.851,-5.641 3.657,-10.488 9.128,-13.323 5.641,-3.061 14.74,-6.293 28.687,-9.496 18.226,-4.223 30.954,-8.079 39.628,-13.124 11.338,-6.492 17.376,-15.194 19.219,-26.476"></path><path id="path114" style="fill:#1c1b18;fill-opacity:1;fill-rule:nonzero;stroke:none" d="m -28312.214,-14514.661 c 2.409,-14.485 -2.721,-26.788 -14.599,-36.511 -11.508,-9.524 -25.88,-15.789 -44.078,-18.822 l -27.043,-4.308 9.638,-60.407 -32.117,-5.244 -23.896,148.394 60.293,9.694 c 18.425,3.09 33.364,1.616 46.29,-2.607 14.598,-6.095 23.272,-16.385 25.512,-30.189 z m -33.194,-6.067 c -1.446,8.136 -5.442,14.004 -12.331,16.045 -7.426,2.806 -15.392,3.401 -24.633,1.814 l -26.475,-4.224 7.625,-47.14 26.929,4.45 c 9.496,1.418 17.206,4.876 23.074,9.525 5.386,5.159 7.058,11.48 5.811,19.53"></path><path id="path116" style="fill:#1c1b18;fill-opacity:1;fill-rule:nonzero;stroke:none" d="m -28114.101,-14514.009 c 3.629,-22.649 1.616,-41.698 -7.483,-56.807 -9.638,-16.554 -26.646,-26.872 -49.323,-30.529 -23.273,-3.827 -42.038,0.794 -55.786,13.323 -13.351,10.913 -21.458,28.913 -25.087,50.995 -3.656,22.621 -1.587,42.236 7.456,57.175 8.957,16.413 25.483,26.901 48.557,30.586 23.443,3.997 42.888,-0.822 57.203,-13.38 12.558,-10.743 20.807,-28.658 24.463,-51.363 z m -31.918,-5.84 c -2.636,15.789 -7.058,27.695 -15.165,36.964 -8.079,10.913 -18.624,15.562 -31.748,13.578 -23.273,-3.855 -32.145,-24.662 -26.107,-61.654 2.409,-15.789 7.086,-28.148 14.4,-37.275 8.078,-10.318 18.567,-14.939 31.124,-12.87 23.839,3.856 33.534,24.038 27.496,61.257"></path><path id="path118" style="fill:#1c1b18;fill-opacity:1;fill-rule:nonzero;stroke:none" d="m -27902.608,-14555.849 -35.972,-5.868 -45.07,59.046 -26.504,-4.252 10.488,-64.63 -31.89,-5.301 -24.123,148.423 64.12,10.459 c 18.765,3.005 34.016,1.616 46.29,-2.211 14.371,-5.244 22.478,-14.938 24.689,-28.289 3.232,-20.24 -6.689,-35.377 -29.537,-45.298 z m -51.165,100.687 c -2.183,14.343 -14.372,20.239 -36.936,16.582 l -29.508,-4.847 6.831,-43.88 29.736,4.62 c 22.819,3.657 32.116,13.238 29.877,27.525"></path><path id="path120" style="fill:#1c1b18;fill-opacity:1;fill-rule:nonzero;stroke:none" d="m -27749.14,-14399.717 -42.038,-6.916 20.835,-127.814 -32.174,-5.018 -20.863,127.559 -42.207,-6.888 -3.232,20.608 116.277,19.049 z"></path><path id="path122" style="fill:#1c1b18;fill-opacity:1;fill-rule:nonzero;stroke:none" d="m -27419.584,-14477.414 -32.712,-5.273 -13.947,10.489 c -9.694,-11.084 -25.285,-18.737 -43.511,-21.771 -18.369,-2.806 -31.55,-1.218 -41.811,3.034 -9.922,5.442 -15.194,13.521 -17.008,24.207 -2.835,17.632 6.661,35.235 29.764,51.761 l -6.463,5.499 c -9.128,7.711 -14.4,11.962 -17.008,15.562 -4.479,4.848 -7.285,9.695 -8.107,14.599 -1.389,9.439 2.239,17.716 10.941,24.463 8.844,7.852 20.637,12.302 36.766,14.91 18.425,3.062 35.801,2.069 52.979,-2.778 l -12.387,-20.211 c -14.06,4.224 -27.44,6.01 -37.559,4.224 -14.315,-2.466 -19.162,-7.682 -18.199,-14.599 1.248,-7.058 4.876,-13.521 13.692,-21.033 l 48.982,-38.579 c 2.268,6.236 4.111,14.938 5.329,23.442 h 27.071 c -3.43,-18.028 -7.115,-31.521 -11.537,-41.244 z m -64.488,19.19 -37.786,30.53 c -12.331,-12.076 -17.83,-21.572 -16.214,-31.295 2.097,-12.756 11.366,-18.425 28.318,-15.591 11.338,1.843 19.445,7.682 25.682,16.356"></path><path id="path124" style="fill:#1c1b18;fill-opacity:1;fill-rule:nonzero;stroke:none" d="m -27144.794,-14432.712 -105.08,-17.008 -23.896,148.394 31.578,5.074 20.551,-128.381 73.644,11.962 z"></path><path id="path126" style="fill:#1c1b18;fill-opacity:1;fill-rule:nonzero;stroke:none" d="m -26963.008,-14327.008 c 3.657,-22.62 1.644,-41.584 -8.05,-56.92 -9.723,-16.384 -26.107,-26.787 -49.323,-30.585 -22.649,-3.629 -41.471,1.02 -55.843,13.549 -12.699,10.885 -20.806,28.914 -24.519,50.939 -3.572,22.62 -1.616,42.264 6.973,57.231 9.694,16.583 25.824,26.844 48.671,30.558 23.244,3.827 42.69,-0.681 56.409,-13.55 14.003,-10.573 21.884,-28.516 25.682,-51.222 z m -32.542,-6.009 c -2.636,15.76 -7.086,27.864 -14.513,36.935 -8.334,11.169 -19.247,15.846 -31.748,13.805 -24.095,-4.082 -32.797,-24.888 -26.958,-61.909 2.693,-15.704 7.711,-27.864 15.223,-36.964 6.661,-10.516 17.971,-14.967 30.5,-12.926 23.868,3.827 33.563,24.038 27.496,61.059"></path><path id="path128" style="fill:#1c1b18;fill-opacity:1;fill-rule:nonzero;stroke:none" d="m -26762.428,-14326.129 c 2.239,-13.805 -1.021,-24.718 -10.489,-34.583 -9.127,-10.545 -24.888,-17.631 -46.289,-21.09 -23.103,-3.826 -42.066,0.851 -56.977,13.38 -13.039,11.509 -20.919,28.885 -24.548,50.74 -3.656,24.038 -2.069,43.909 8.051,58.252 9.581,16.356 26.759,26.419 49.408,29.906 33.363,5.499 55.389,-2.41 66.869,-25.881 l -31.266,-10.686 c -3.657,7.086 -7.512,11.537 -13.153,13.748 -5.102,3.004 -12.104,3.231 -19.814,1.956 -12.359,-1.956 -20.438,-8.448 -24.917,-20.126 -4.819,-10.318 -5.244,-24.095 -2.438,-41.726 2.438,-14.372 6.917,-26.079 14.174,-35.802 8.334,-10.233 19.417,-14.74 33.165,-12.671 10.743,1.758 17.802,5.443 21.061,9.865 4.451,4.422 5.641,11.962 4.196,21.43 l -1.588,10.771 -25.852,-4.308 -3.288,20.041 58.252,9.552 z"></path><path id="path130" style="fill:#1c1b18;fill-opacity:1;fill-rule:nonzero;stroke:none" d="m -26648.362,-14352.038 -32.173,-5.301 -24.067,148.479 32.202,5.244 z"></path><path id="path132" style="fill:#1c1b18;fill-opacity:1;fill-rule:nonzero;stroke:none" d="m -26465.414,-14282.872 c 2.069,-11.963 -1.984,-23.018 -11.48,-32.315 -9.553,-8.561 -24.719,-14.769 -44.108,-18.085 -25.88,-4.252 -47.933,0.652 -65.055,13.974 l 23.811,16.781 c 11.736,-8.503 25.484,-12.67 39.203,-10.289 18.029,2.806 27.298,10.658 25.314,23.272 -0.992,5.613 -4.422,11.112 -10.743,13.748 -4.989,3.799 -16.782,7.682 -32.741,11.509 -16.781,3.798 -28.488,7.682 -36.368,12.331 -9.298,6.066 -15.222,14.711 -16.838,24.859 -2.041,11.141 1.871,21.033 10.772,29.509 9.467,8.164 22.847,13.975 40.422,16.951 22.649,3.657 42.463,0.51 59.216,-11.282 l -21.204,-16.752 c -6.888,3.231 -12.529,6.264 -17.376,7.455 -5.074,1.02 -11.168,1.36 -18.624,0.17 -15.193,-2.438 -23.074,-9.695 -21.401,-19.786 0.964,-5.499 4.422,-10.12 10.063,-12.926 5.471,-3.061 14.343,-6.321 28.516,-9.723 18.199,-4.195 31.55,-7.682 39.062,-12.954 11.338,-6.69 17.943,-15.109 19.559,-26.447"></path><path id="path134" style="fill:#1c1b18;fill-opacity:1;fill-rule:nonzero;stroke:none" d="m -26307.468,-14165.631 -42.264,-6.719 20.834,-127.672 -32.003,-5.301 -20.749,127.758 -42.123,-6.889 -3.402,20.608 116.476,19.049 z"></path><path id="path136" style="fill:#1c1b18;fill-opacity:1;fill-rule:nonzero;stroke:none" d="m -26186.769,-14277.005 -32.144,-5.074 -24.038,148.196 32.116,5.3 z"></path><path id="path138" style="fill:#1c1b18;fill-opacity:1;fill-rule:nonzero;stroke:none" d="m -25995.487,-14245.88 -111.826,-18.255 -24.293,148.422 107.66,17.376 3.203,-20.126 -74.863,-12.217 6.491,-39.629 48.359,7.909 3.402,-20.041 -48.558,-7.824 7.937,-48.557 79.285,12.926 z"></path><path id="path140" style="fill:#1c1b18;fill-opacity:1;fill-rule:nonzero;stroke:none" d="m -25801.795,-14214.472 -34.583,-5.556 -54.198,67.379 -15.534,-23.272 8.872,-54.029 -32.145,-5.159 -24.321,148.309 32.23,5.074 6.066,-37.616 c 1.644,-9.241 2.835,-16.951 3.232,-24.038 3.6,6.435 8.277,13.578 14.768,24.492 l 31.38,46.29 36.34,5.896 -41.811,-60.265 z"></path><path id="path142" style="fill:#1c1b18;fill-opacity:1;fill-rule:nonzero;stroke:none" d="m -28808.447,-13983.817 -14.91,91.53 c -1.389,8.93 -4.111,14.23 -6.747,17.235 -3.798,4.252 -7.88,5.613 -15.109,4.649 l -12.954,-2.268 c -47.707,-7.682 -97.852,-25.086 -132.463,-43.2 -43.455,-21.118 -65.905,-37.417 -59.017,-78.491 l 81.297,-501.647 c 1.588,-9.695 7.852,-15.761 15.137,-14.571 l 108.766,17.802 c 7.682,1.219 11.338,8.646 9.723,18.652 l -71.348,438.293 c 6.463,2.069 43.483,16.214 86.513,23.272 15.392,2.637 13.408,14.967 11.112,28.744 z m 569.792,-106.385 c -28.517,175.295 -73.814,308.948 -250.866,280.205 -176.599,-28.686 -176.315,-169.625 -147.827,-344.863 28.29,-175.379 72.567,-307.786 249.052,-279.071 177.137,28.744 178.186,168.378 149.641,343.729 z m -136.942,-22.195 c 21.062,-129.231 27.383,-181.644 -33.675,-191.735 -59.811,-9.468 -71.178,42.066 -92.268,171.269 -20.977,130.252 -26.674,182.608 33.194,192.274 61.143,9.921 71.631,-41.584 92.749,-171.808 z m 1387.332,-61.682 -67.181,413.207 c -24.009,147.259 -92.551,168.888 -191.197,152.929 -72.822,-11.934 -134.277,-56.807 -138.897,-61.087 -25.087,16.781 -60.662,28.488 -109.417,20.636 -48.133,-7.682 -104.741,-28.743 -140.741,-46.148 -44.674,-22.45 -66.104,-38.806 -59.244,-80.419 l 81.27,-500.825 c 1.644,-9.723 7.086,-15.987 14.768,-14.797 l 109.219,17.859 c 7.597,1.36 11.282,8.844 9.666,18.595 l -73.984,454.28 c 0,0 36,16.356 62.844,20.608 30.387,5.074 50.995,-11.31 60.661,-71.631 l 62.703,-384.917 c 1.417,-9.921 7.228,-15.959 14.938,-14.768 l 109.248,17.858 c 7.625,1.332 12.075,8.844 10.516,18.737 l -73.842,454.195 c 0,0 31.322,15.789 58.875,20.183 29.906,4.79 54,-10.914 63.638,-71.207 l 62.532,-384.944 c 1.843,-9.95 7.427,-15.931 15.137,-14.741 l 109.389,17.774 c 7.512,1.219 10.744,8.674 9.099,18.623 z m 530.986,192.076 -50.371,309.316 c -10.29,64.29 -31.352,113.046 -74.41,137.707 -30.501,18.171 -70.923,23.471 -124.554,14.769 -84.558,-13.776 -153.865,-58.592 -166.819,-70.554 -4.025,-4.082 -8.901,-9.27 -7.285,-19.616 0.425,-2.013 1.644,-4.479 2.069,-6.435 l 26.844,-82.743 c 2.268,-8.107 5.471,-9.865 10.347,-9.099 1.19,0.198 3.827,0.822 5.697,2.267 15.959,9.667 72.766,43.002 120.444,50.684 23.074,3.827 41.046,3.231 52.413,-1.389 15.279,-8.107 20.806,-26.107 25.427,-54.397 l 3.912,-23.613 -125.802,-52.015 c -49.153,-19.389 -110.806,-52.555 -87.59,-195.506 28.544,-175.323 127.417,-180.142 222.689,-164.806 45.808,7.483 80.618,18 109.786,33.165 49.295,26.504 71.263,44.107 57.203,132.265 z m -130.649,-25.909 c -3.826,-1.616 -27.127,-14.938 -53.971,-19.219 -25.852,-4.167 -65.084,-1.19 -76.252,67.947 -10.233,63.297 10.743,75.004 37.19,86.343 l 66.785,26.872 z m 736.385,23.244 -179.348,255.572 75.401,286.724 c 0.425,3.43 1.021,5.896 0.425,9.071 -1.615,10.318 -9.552,18.227 -13.294,17.632 l -107.603,-17.348 c -9.695,-1.673 -15.137,-3.459 -18.199,-19.248 l -33.93,-192.472 -106.158,171.014 c -7.285,12.926 -13.181,12.756 -21.657,11.339 l -109.785,-17.575 c -3.657,-0.822 -8.703,-10.715 -7.059,-21.09 0.567,-3.373 1.021,-5.414 3.402,-8.645 l 162.567,-248.117 -89.575,-299.083 c -0.624,-1.361 -1.219,-3.572 -0.624,-7.002 1.078,-6.917 5.33,-13.975 10.149,-13.351 l 120.699,19.616 c 5.471,1.02 9.269,7.058 10.289,14.371 l 46.659,208.432 120.387,-182.58 c 3.827,-5.244 8.674,-9.921 14.939,-8.929 l 119.905,19.474 c 4.649,0.539 6.293,9.071 5.244,15.732 -0.595,3.402 -1.615,5.471 -2.834,6.463 z"></path><path id="path144" style="fill:#1c1b18;fill-opacity:1;fill-rule:nonzero;stroke:none" d="m -27830.183,-14052.756 -13.606,83.65 c -2.013,12.36 -11.509,22.848 -22.167,21.005 l -210.727,-34.327 c -10.744,-1.644 -16.611,-14.344 -14.542,-26.901 l 13.521,-83.48 c 2.636,-15.818 15.364,-20.863 22.025,-19.588 l 210.898,34.129 c 7.653,1.248 16.979,10.744 14.598,25.512 z"></path><path id="path146" style="fill:#1c1b18;fill-opacity:1;fill-rule:nonzero;stroke:none" d="m -29249.348,-14244.265 c -30.387,175.72 -59.102,292.366 -280.687,269.49 l -176.145,-32.088 138.926,-828.198 125.774,20.381 -41.5,230.683 c 231.166,7.143 259.427,185.811 233.632,339.732 z m -243.128,-220.393 -55.757,342.935 c 173.679,106.101 234.34,-375.732 55.757,-342.935 z"></path></g></g><path id="path152" style="fill:#f07f1c;fill-opacity:1;fill-rule:evenodd;stroke:none" d="m -27343.361,-12369.231 c 1146.558,52.44 2118.104,-834.095 2170.545,-1980.908 44.419,-974.437 -588.982,-1816.611 -1483.2,-2084.258 -146.863,-44.617 -327.656,-81.694 -482.145,-82.205 -71.433,0 -142.979,8.986 -209.622,32.712 130.196,-5.244 250.753,12.558 379.956,34.101 1393.229,375.194 2196.312,2056.876 935.235,3170.466 -832.195,562.706 -1640.353,454.592 -2291.556,-310.308 142.214,-71.519 204.945,-111.912 325.672,-218.863 517.919,205.001 814.763,41.811 1125.185,-425.623 l -1653.251,-16.696 -15.392,-129.628 c 903.458,44.589 1684.006,52.214 2591.008,17.093 -1112.315,-119.906 -2103.392,-267.364 -3163.606,-579.543 l -139.011,-47.367 c -7.852,-1.588 -4.082,15.222 -6.52,23.074 -35.32,137.338 -57.515,279.949 -64.233,427.464 -52.441,1146.756 835.313,2118.133 1980.935,2170.489"></path><path id="path154" style="fill:#737373;fill-opacity:1;fill-rule:evenodd;stroke:none" d="m -25673.754,-14413.011 c -1066.904,-462.387 -2007.015,-1231.852 -2763.78,-2103.902 -14.003,232.922 -31.833,457.993 -44.56,635.357 -21.742,304.639 -237.799,629.66 -613.219,616.932 l -841.947,-28.289 c 1117.361,450.17 3115.616,807.363 4263.506,879.902"></path><path id="path156" style="fill:#ffffff;fill-opacity:1;fill-rule:evenodd;stroke:none" d="m -28123.597,-15254.674 -69.732,135.921 281.735,91.786 60.265,-126.085 z"></path><path id="path158" style="fill:#ffffff;fill-opacity:1;fill-rule:evenodd;stroke:none" d="m -27633.572,-15053.244 -54.113,115.653 267.591,62.193 47.196,-106.838 z"></path><path id="path160" style="fill:#ffffff;fill-opacity:1;fill-rule:evenodd;stroke:none" d="m -27172.998,-14903.008 -40.989,91.502 235.7,48.615 31.352,-75.26 z"></path><path id="path162" style="fill:#ffffff;fill-opacity:1;fill-rule:evenodd;stroke:none" d="m -28768.62,-15354.113 286.185,90.793 54.737,-126.397 -208.601,-85.266 z"></path><g id="g164"><g id="g166"></g><g id="g218"><g id="g216" clip-path="url(#clipPath170)"><path id="path172" style="fill:#1c1b18;fill-opacity:1;fill-rule:nonzero;stroke:none" d="m -29283.194,-14649.052 -42.264,-6.917 20.834,-127.587 -32.173,-5.187 -20.608,127.53 -42.293,-6.859 -3.401,20.607 116.475,19.049 z"></path><path id="path174" style="fill:#1c1b18;fill-opacity:1;fill-rule:nonzero;stroke:none" d="m -29067.42,-14745.09 -36,-5.867 -45.723,59.017 -25.682,-4.195 10.573,-64.744 -32.173,-5.301 -24.095,148.479 64.148,10.262 c 18.17,3.203 34.526,1.842 46.035,-1.786 14.598,-5.471 21.827,-15.392 24.094,-28.488 3.26,-20.495 -5.867,-35.207 -28.686,-45.326 z m -51.364,100.687 c -2.211,14.315 -14.74,19.956 -36.822,16.583 l -29.509,-4.876 7.058,-44.079 29.566,4.847 c 22.053,3.657 32.116,12.926 29.707,27.525"></path><path id="path176" style="fill:#1c1b18;fill-opacity:1;fill-rule:nonzero;stroke:none" d="m -28866.841,-14712.548 -35.235,-5.669 -19.615,36.822 -49.663,-8.136 -6.69,-41.215 -34.158,-5.443 31.947,157.493 33.137,5.471 z m -64.318,49.521 -12.728,23.698 c -1.814,3.033 -6.718,13.124 -14.938,31.351 -1.276,-8.079 -2.466,-19.842 -5.131,-34.611 l -4.394,-26.532 z"></path><path id="path178" style="fill:#1c1b18;fill-opacity:1;fill-rule:nonzero;stroke:none" d="m -28674.964,-14681.395 -26.305,-4.252 -68.542,70.157 c -4.847,6.435 -12.302,13.351 -20.239,21.997 1.899,-7.455 3.486,-17.546 5.499,-30.302 l 12.189,-73.389 -31.068,-5.074 -24.038,148.422 31.408,5.102 61.2,-62.901 c 5.443,-5.669 11.934,-12.982 20.466,-21.231 -2.041,7.257 -4.308,17.376 -6.066,29.31 l -10.715,65.282 31.947,5.244 z"></path><path id="path180" style="fill:#1c1b18;fill-opacity:1;fill-rule:nonzero;stroke:none" d="m -28494.425,-14612.627 c 2.041,-11.99 -2.013,-22.875 -11.537,-32.428 -9.723,-8.447 -24.69,-14.939 -44.844,-18.17 -25.342,-4.082 -46.574,1.02 -64.318,14.173 l 23.839,16.809 c 11.735,-8.56 25.285,-12.812 39.883,-10.346 17.405,2.835 26.448,10.715 24.463,23.272 -1.048,5.641 -4.875,10.829 -10.516,13.919 -5.273,3.656 -16.781,7.511 -33.165,11.31 -16.611,3.855 -28.149,7.71 -35.377,12.387 -10.12,6.038 -16.639,14.74 -18.425,24.633 -1.644,11.367 2.381,21.232 11.509,29.679 10.289,8.107 22.875,13.975 40.45,17.065 22.649,3.6 42.718,0.34 59.443,-11.169 l -21.232,-17.008 c -6.265,3.402 -12.728,6.265 -18,7.54 -4.082,1.191 -10.715,1.389 -17.405,0.369 -16.384,-2.835 -23.045,-9.666 -21.43,-19.616 0.851,-5.641 3.657,-10.488 9.128,-13.323 5.641,-3.061 14.74,-6.293 28.687,-9.496 18.226,-4.223 30.954,-8.079 39.628,-13.124 11.338,-6.492 17.376,-15.194 19.219,-26.476"></path><path id="path182" style="fill:#1c1b18;fill-opacity:1;fill-rule:nonzero;stroke:none" d="m -28312.214,-14514.661 c 2.409,-14.485 -2.721,-26.788 -14.599,-36.511 -11.508,-9.524 -25.88,-15.789 -44.078,-18.822 l -27.043,-4.308 9.638,-60.407 -32.117,-5.244 -23.896,148.394 60.293,9.694 c 18.425,3.09 33.364,1.616 46.29,-2.607 14.598,-6.095 23.272,-16.385 25.512,-30.189 z m -33.194,-6.067 c -1.446,8.136 -5.442,14.004 -12.331,16.045 -7.426,2.806 -15.392,3.401 -24.633,1.814 l -26.475,-4.224 7.625,-47.14 26.929,4.45 c 9.496,1.418 17.206,4.876 23.074,9.525 5.386,5.159 7.058,11.48 5.811,19.53"></path><path id="path184" style="fill:#1c1b18;fill-opacity:1;fill-rule:nonzero;stroke:none" d="m -28114.101,-14514.009 c 3.629,-22.649 1.616,-41.698 -7.483,-56.807 -9.638,-16.554 -26.646,-26.872 -49.323,-30.529 -23.273,-3.827 -42.038,0.794 -55.786,13.323 -13.351,10.913 -21.458,28.913 -25.087,50.995 -3.656,22.621 -1.587,42.236 7.456,57.175 8.957,16.413 25.483,26.901 48.557,30.586 23.443,3.997 42.888,-0.822 57.203,-13.38 12.558,-10.743 20.807,-28.658 24.463,-51.363 z m -31.918,-5.84 c -2.636,15.789 -7.058,27.695 -15.165,36.964 -8.079,10.913 -18.624,15.562 -31.748,13.578 -23.273,-3.855 -32.145,-24.662 -26.107,-61.654 2.409,-15.789 7.086,-28.148 14.4,-37.275 8.078,-10.318 18.567,-14.939 31.124,-12.87 23.839,3.856 33.534,24.038 27.496,61.257"></path><path id="path186" style="fill:#1c1b18;fill-opacity:1;fill-rule:nonzero;stroke:none" d="m -27902.608,-14555.849 -35.972,-5.868 -45.07,59.046 -26.504,-4.252 10.488,-64.63 -31.89,-5.301 -24.123,148.423 64.12,10.459 c 18.765,3.005 34.016,1.616 46.29,-2.211 14.371,-5.244 22.478,-14.938 24.689,-28.289 3.232,-20.24 -6.689,-35.377 -29.537,-45.298 z m -51.165,100.687 c -2.183,14.343 -14.372,20.239 -36.936,16.582 l -29.508,-4.847 6.831,-43.88 29.736,4.62 c 22.819,3.657 32.116,13.238 29.877,27.525"></path><path id="path188" style="fill:#1c1b18;fill-opacity:1;fill-rule:nonzero;stroke:none" d="m -27749.14,-14399.717 -42.038,-6.916 20.835,-127.814 -32.174,-5.018 -20.863,127.559 -42.207,-6.888 -3.232,20.608 116.277,19.049 z"></path><path id="path190" style="fill:#1c1b18;fill-opacity:1;fill-rule:nonzero;stroke:none" d="m -27419.584,-14477.414 -32.712,-5.273 -13.947,10.489 c -9.694,-11.084 -25.285,-18.737 -43.511,-21.771 -18.369,-2.806 -31.55,-1.218 -41.811,3.034 -9.922,5.442 -15.194,13.521 -17.008,24.207 -2.835,17.632 6.661,35.235 29.764,51.761 l -6.463,5.499 c -9.128,7.711 -14.4,11.962 -17.008,15.562 -4.479,4.848 -7.285,9.695 -8.107,14.599 -1.389,9.439 2.239,17.716 10.941,24.463 8.844,7.852 20.637,12.302 36.766,14.91 18.425,3.062 35.801,2.069 52.979,-2.778 l -12.387,-20.211 c -14.06,4.224 -27.44,6.01 -37.559,4.224 -14.315,-2.466 -19.162,-7.682 -18.199,-14.599 1.248,-7.058 4.876,-13.521 13.692,-21.033 l 48.982,-38.579 c 2.268,6.236 4.111,14.938 5.329,23.442 h 27.071 c -3.43,-18.028 -7.115,-31.521 -11.537,-41.244 z m -64.488,19.19 -37.786,30.53 c -12.331,-12.076 -17.83,-21.572 -16.214,-31.295 2.097,-12.756 11.366,-18.425 28.318,-15.591 11.338,1.843 19.445,7.682 25.682,16.356"></path><path id="path192" style="fill:#1c1b18;fill-opacity:1;fill-rule:nonzero;stroke:none" d="m -27144.794,-14432.712 -105.08,-17.008 -23.896,148.394 31.578,5.074 20.551,-128.381 73.644,11.962 z"></path><path id="path194" style="fill:#1c1b18;fill-opacity:1;fill-rule:nonzero;stroke:none" d="m -26963.008,-14327.008 c 3.657,-22.62 1.644,-41.584 -8.05,-56.92 -9.723,-16.384 -26.107,-26.787 -49.323,-30.585 -22.649,-3.629 -41.471,1.02 -55.843,13.549 -12.699,10.885 -20.806,28.914 -24.519,50.939 -3.572,22.62 -1.616,42.264 6.973,57.231 9.694,16.583 25.824,26.844 48.671,30.558 23.244,3.827 42.69,-0.681 56.409,-13.55 14.003,-10.573 21.884,-28.516 25.682,-51.222 z m -32.542,-6.009 c -2.636,15.76 -7.086,27.864 -14.513,36.935 -8.334,11.169 -19.247,15.846 -31.748,13.805 -24.095,-4.082 -32.797,-24.888 -26.958,-61.909 2.693,-15.704 7.711,-27.864 15.223,-36.964 6.661,-10.516 17.971,-14.967 30.5,-12.926 23.868,3.827 33.563,24.038 27.496,61.059"></path><path id="path196" style="fill:#1c1b18;fill-opacity:1;fill-rule:nonzero;stroke:none" d="m -26762.428,-14326.129 c 2.239,-13.805 -1.021,-24.718 -10.489,-34.583 -9.127,-10.545 -24.888,-17.631 -46.289,-21.09 -23.103,-3.826 -42.066,0.851 -56.977,13.38 -13.039,11.509 -20.919,28.885 -24.548,50.74 -3.656,24.038 -2.069,43.909 8.051,58.252 9.581,16.356 26.759,26.419 49.408,29.906 33.363,5.499 55.389,-2.41 66.869,-25.881 l -31.266,-10.686 c -3.657,7.086 -7.512,11.537 -13.153,13.748 -5.102,3.004 -12.104,3.231 -19.814,1.956 -12.359,-1.956 -20.438,-8.448 -24.917,-20.126 -4.819,-10.318 -5.244,-24.095 -2.438,-41.726 2.438,-14.372 6.917,-26.079 14.174,-35.802 8.334,-10.233 19.417,-14.74 33.165,-12.671 10.743,1.758 17.802,5.443 21.061,9.865 4.451,4.422 5.641,11.962 4.196,21.43 l -1.588,10.771 -25.852,-4.308 -3.288,20.041 58.252,9.552 z"></path><path id="path198" style="fill:#1c1b18;fill-opacity:1;fill-rule:nonzero;stroke:none" d="m -26648.362,-14352.038 -32.173,-5.301 -24.067,148.479 32.202,5.244 z"></path><path id="path200" style="fill:#1c1b18;fill-opacity:1;fill-rule:nonzero;stroke:none" d="m -26465.414,-14282.872 c 2.069,-11.963 -1.984,-23.018 -11.48,-32.315 -9.553,-8.561 -24.719,-14.769 -44.108,-18.085 -25.88,-4.252 -47.933,0.652 -65.055,13.974 l 23.811,16.781 c 11.736,-8.503 25.484,-12.67 39.203,-10.289 18.029,2.806 27.298,10.658 25.314,23.272 -0.992,5.613 -4.422,11.112 -10.743,13.748 -4.989,3.799 -16.782,7.682 -32.741,11.509 -16.781,3.798 -28.488,7.682 -36.368,12.331 -9.298,6.066 -15.222,14.711 -16.838,24.859 -2.041,11.141 1.871,21.033 10.772,29.509 9.467,8.164 22.847,13.975 40.422,16.951 22.649,3.657 42.463,0.51 59.216,-11.282 l -21.204,-16.752 c -6.888,3.231 -12.529,6.264 -17.376,7.455 -5.074,1.02 -11.168,1.36 -18.624,0.17 -15.193,-2.438 -23.074,-9.695 -21.401,-19.786 0.964,-5.499 4.422,-10.12 10.063,-12.926 5.471,-3.061 14.343,-6.321 28.516,-9.723 18.199,-4.195 31.55,-7.682 39.062,-12.954 11.338,-6.69 17.943,-15.109 19.559,-26.447"></path><path id="path202" style="fill:#1c1b18;fill-opacity:1;fill-rule:nonzero;stroke:none" d="m -26307.468,-14165.631 -42.264,-6.719 20.834,-127.672 -32.003,-5.301 -20.749,127.758 -42.123,-6.889 -3.402,20.608 116.476,19.049 z"></path><path id="path204" style="fill:#1c1b18;fill-opacity:1;fill-rule:nonzero;stroke:none" d="m -26186.769,-14277.005 -32.144,-5.074 -24.038,148.196 32.116,5.3 z"></path><path id="path206" style="fill:#1c1b18;fill-opacity:1;fill-rule:nonzero;stroke:none" d="m -25995.487,-14245.88 -111.826,-18.255 -24.293,148.422 107.66,17.376 3.203,-20.126 -74.863,-12.217 6.491,-39.629 48.359,7.909 3.402,-20.041 -48.558,-7.824 7.937,-48.557 79.285,12.926 z"></path><path id="path208" style="fill:#1c1b18;fill-opacity:1;fill-rule:nonzero;stroke:none" d="m -25801.795,-14214.472 -34.583,-5.556 -54.198,67.379 -15.534,-23.272 8.872,-54.029 -32.145,-5.159 -24.321,148.309 32.23,5.074 6.066,-37.616 c 1.644,-9.241 2.835,-16.951 3.232,-24.038 3.6,6.435 8.277,13.578 14.768,24.492 l 31.38,46.29 36.34,5.896 -41.811,-60.265 z"></path><path id="path210" style="fill:#1c1b18;fill-opacity:1;fill-rule:nonzero;stroke:none" d="m -28808.447,-13983.817 -14.91,91.53 c -1.389,8.93 -4.111,14.23 -6.747,17.235 -3.798,4.252 -7.88,5.613 -15.109,4.649 l -12.954,-2.268 c -47.707,-7.682 -97.852,-25.086 -132.463,-43.2 -43.455,-21.118 -65.905,-37.417 -59.017,-78.491 l 81.297,-501.647 c 1.588,-9.695 7.852,-15.761 15.137,-14.571 l 108.766,17.802 c 7.682,1.219 11.338,8.646 9.723,18.652 l -71.348,438.293 c 6.463,2.069 43.483,16.214 86.513,23.272 15.392,2.637 13.408,14.967 11.112,28.744 z m 569.792,-106.385 c -28.517,175.295 -73.814,308.948 -250.866,280.205 -176.599,-28.686 -176.315,-169.625 -147.827,-344.863 28.29,-175.379 72.567,-307.786 249.052,-279.071 177.137,28.744 178.186,168.378 149.641,343.729 z m -136.942,-22.195 c 21.062,-129.231 27.383,-181.644 -33.675,-191.735 -59.811,-9.468 -71.178,42.066 -92.268,171.269 -20.977,130.252 -26.674,182.608 33.194,192.274 61.143,9.921 71.631,-41.584 92.749,-171.808 z m 1387.332,-61.682 -67.181,413.207 c -24.009,147.259 -92.551,168.888 -191.197,152.929 -72.822,-11.934 -134.277,-56.807 -138.897,-61.087 -25.087,16.781 -60.662,28.488 -109.417,20.636 -48.133,-7.682 -104.741,-28.743 -140.741,-46.148 -44.674,-22.45 -66.104,-38.806 -59.244,-80.419 l 81.27,-500.825 c 1.644,-9.723 7.086,-15.987 14.768,-14.797 l 109.219,17.859 c 7.597,1.36 11.282,8.844 9.666,18.595 l -73.984,454.28 c 0,0 36,16.356 62.844,20.608 30.387,5.074 50.995,-11.31 60.661,-71.631 l 62.703,-384.917 c 1.417,-9.921 7.228,-15.959 14.938,-14.768 l 109.248,17.858 c 7.625,1.332 12.075,8.844 10.516,18.737 l -73.842,454.195 c 0,0 31.322,15.789 58.875,20.183 29.906,4.79 54,-10.914 63.638,-71.207 l 62.532,-384.944 c 1.843,-9.95 7.427,-15.931 15.137,-14.741 l 109.389,17.774 c 7.512,1.219 10.744,8.674 9.099,18.623 z m 530.986,192.076 -50.371,309.316 c -10.29,64.29 -31.352,113.046 -74.41,137.707 -30.501,18.171 -70.923,23.471 -124.554,14.769 -84.558,-13.776 -153.865,-58.592 -166.819,-70.554 -4.025,-4.082 -8.901,-9.27 -7.285,-19.616 0.425,-2.013 1.644,-4.479 2.069,-6.435 l 26.844,-82.743 c 2.268,-8.107 5.471,-9.865 10.347,-9.099 1.19,0.198 3.827,0.822 5.697,2.267 15.959,9.667 72.766,43.002 120.444,50.684 23.074,3.827 41.046,3.231 52.413,-1.389 15.279,-8.107 20.806,-26.107 25.427,-54.397 l 3.912,-23.613 -125.802,-52.015 c -49.153,-19.389 -110.806,-52.555 -87.59,-195.506 28.544,-175.323 127.417,-180.142 222.689,-164.806 45.808,7.483 80.618,18 109.786,33.165 49.295,26.504 71.263,44.107 57.203,132.265 z m -130.649,-25.909 c -3.826,-1.616 -27.127,-14.938 -53.971,-19.219 -25.852,-4.167 -65.084,-1.19 -76.252,67.947 -10.233,63.297 10.743,75.004 37.19,86.343 l 66.785,26.872 z m 736.385,23.244 -179.348,255.572 75.401,286.724 c 0.425,3.43 1.021,5.896 0.425,9.071 -1.615,10.318 -9.552,18.227 -13.294,17.632 l -107.603,-17.348 c -9.695,-1.673 -15.137,-3.459 -18.199,-19.248 l -33.93,-192.472 -106.158,171.014 c -7.285,12.926 -13.181,12.756 -21.657,11.339 l -109.785,-17.575 c -3.657,-0.822 -8.703,-10.715 -7.059,-21.09 0.567,-3.373 1.021,-5.414 3.402,-8.645 l 162.567,-248.117 -89.575,-299.083 c -0.624,-1.361 -1.219,-3.572 -0.624,-7.002 1.078,-6.917 5.33,-13.975 10.149,-13.351 l 120.699,19.616 c 5.471,1.02 9.269,7.058 10.289,14.371 l 46.659,208.432 120.387,-182.58 c 3.827,-5.244 8.674,-9.921 14.939,-8.929 l 119.905,19.474 c 4.649,0.539 6.293,9.071 5.244,15.732 -0.595,3.402 -1.615,5.471 -2.834,6.463 z"></path><path id="path212" style="fill:#1c1b18;fill-opacity:1;fill-rule:nonzero;stroke:none" d="m -27830.183,-14052.756 -13.606,83.65 c -2.013,12.36 -11.509,22.848 -22.167,21.005 l -210.727,-34.327 c -10.744,-1.644 -16.611,-14.344 -14.542,-26.901 l 13.521,-83.48 c 2.636,-15.818 15.364,-20.863 22.025,-19.588 l 210.898,34.129 c 7.653,1.248 16.979,10.744 14.598,25.512 z"></path><path id="path214" style="fill:#1c1b18;fill-opacity:1;fill-rule:nonzero;stroke:none" d="m -29249.348,-14244.265 c -30.387,175.72 -59.102,292.366 -280.687,269.49 l -176.145,-32.088 138.926,-828.198 125.774,20.381 -41.5,230.683 c 231.166,7.143 259.427,185.811 233.632,339.732 z m -243.128,-220.393 -55.757,342.935 c 173.679,106.101 234.34,-375.732 55.757,-342.935 z"></path></g></g></g></g></g></g></svg></svg></g></g></svg></g></svg>